<?xml version="1.0" encoding="UTF-8"?>
<svg version="1.1" xmlns="http://www.w3.org/2000/svg" width="500" height="500">
<path d="M0 0 C0 0.66 0 1.32 0 2 C-0.66 2 -1.32 2 -2 2 C-2 2.66 -2 3.32 -2 4 C-3.2578125 5.234375 -3.2578125 5.234375 -5.125 6.75 C-10.14614063 10.98545856 -14.68706489 15.65929058 -19.25048828 20.37597656 C-19.83556152 20.97249023 -20.42063477 21.56900391 -21.0234375 22.18359375 C-21.54856934 22.72556396 -22.07370117 23.26753418 -22.61474609 23.82592773 C-24 25 -24 25 -26 25 C-26 25.66 -26 26.32 -26 27 C-26.66 27 -27.32 27 -28 27 C-28 27.66 -28 28.32 -28 29 C-28.66 29 -29.32 29 -30 29 C-30 29.66 -30 30.32 -30 31 C-30.66 31 -31.32 31 -32 31 C-32.39638672 31.88945312 -32.39638672 31.88945312 -32.80078125 32.796875 C-34.04370425 35.08029054 -35.30401646 36.47426723 -37.1875 38.25 C-41.0260565 41.98650899 -44.50948418 45.93947334 -48 50 C-48.96949346 51.11767231 -49.93959772 52.23481495 -50.91015625 53.3515625 C-53.7185226 56.58355148 -56.52109262 59.82050151 -59.32128906 63.05957031 C-60.40291857 64.30983083 -61.48552607 65.55924627 -62.56933594 66.80761719 C-68.39976078 73.52405637 -74.1223874 80.31133121 -79.6875 87.25 C-80.20513916 87.89453125 -80.72277832 88.5390625 -81.25610352 89.203125 C-83.87316863 92.4392594 -83.87316863 92.4392594 -86 96 C-86.66 96 -87.32 96 -88 96 C-88.24621094 96.71800781 -88.49242187 97.43601562 -88.74609375 98.17578125 C-90.14116316 101.31794692 -91.86471807 103.55095942 -94.0625 106.1875 C-96.80920164 109.41282987 -96.80920164 109.41282987 -99 113 C-99.66 113 -100.32 113 -101 113 C-101.23074219 113.69480469 -101.46148437 114.38960938 -101.69921875 115.10546875 C-103.2654424 118.59066913 -105.43350134 121.36095682 -107.8125 124.3125 C-110.76334385 128.03968674 -113.56513523 131.71783252 -116 135.8125 C-116.66 136.864375 -117.32 137.91625 -118 139 C-118.66 139 -119.32 139 -120 139 C-120.23976563 139.69867188 -120.47953125 140.39734375 -120.7265625 141.1171875 C-122.22407653 144.50726527 -124.14391574 147.16751622 -126.375 150.125 C-127.14585937 151.15882813 -127.91671875 152.19265625 -128.7109375 153.2578125 C-131.83360484 156.99861877 -133.53882315 158.84059889 -138.4375 159.375 C-144.14064158 158.77466931 -147.23047766 156.06444273 -150.875 151.8125 C-154.93175731 147.18199165 -159.09060437 142.66799873 -163.3125 138.1875 C-171.31970581 129.66968686 -179.32791485 121.1490581 -187.125 112.4375 C-187.64320313 111.85871094 -188.16140625 111.27992188 -188.6953125 110.68359375 C-192.26956522 106.07130956 -192.2705766 102.68210859 -192 97 C-191.67 96.01 -191.34 95.02 -191 94 C-190.34 94 -189.68 94 -189 94 C-189 93.34 -189 92.68 -189 92 C-184.80081546 90.37174477 -182.92306736 89.75274981 -178.5 90.9375 C-175.01573499 92.69903265 -172.54528036 95.19411548 -169.9050293 98.03076172 C-168.10988851 99.8864077 -166.25943085 101.56283631 -164.296875 103.23828125 C-161.40141779 105.74640976 -158.58711183 108.31134968 -155.82421875 110.96484375 C-155.14166016 111.61904297 -154.45910156 112.27324219 -153.75585938 112.94726562 C-152.3531429 114.29699942 -150.95483497 115.65132699 -149.56054688 117.00976562 C-148.88443359 117.65494141 -148.20832031 118.30011719 -147.51171875 118.96484375 C-146.60619263 119.84064087 -146.60619263 119.84064087 -145.68237305 120.73413086 C-143.95137038 122.30062117 -143.95137038 122.30062117 -141 122 C-139.10095414 120.0443107 -137.39559448 118.11204161 -135.6875 116 C-135.19838135 115.41001221 -134.7092627 114.82002441 -134.20532227 114.2121582 C-131.02364914 110.34820762 -127.97816284 106.40477441 -125.12109375 102.29296875 C-124.75113281 101.86628906 -124.38117188 101.43960938 -124 101 C-123.34 101 -122.68 101 -122 101 C-121.78472656 100.46632813 -121.56945312 99.93265625 -121.34765625 99.3828125 C-119.50271856 96.12074875 -117.00239653 93.57340625 -114.4375 90.875 C-113.3536982 89.71788653 -112.27036971 88.56032955 -111.1875 87.40234375 C-110.64996094 86.82983887 -110.11242187 86.25733398 -109.55859375 85.66748047 C-107.32675855 83.27972445 -105.12849393 80.86272848 -102.9375 78.4375 C-102.24527344 77.67308594 -101.55304688 76.90867187 -100.83984375 76.12109375 C-98.96610697 74.02930258 -98.96610697 74.02930258 -97.37890625 71.72265625 C-96.92386719 71.15417969 -96.46882813 70.58570313 -96 70 C-95.34 70 -94.68 70 -94 70 C-94 69.34 -94 68.68 -94 68 C-93.34 68 -92.68 68 -92 68 C-92 67.34 -92 66.68 -92 66 C-91.34 66 -90.68 66 -90 66 C-89.61328125 65.12601563 -89.61328125 65.12601563 -89.21875 64.234375 C-87.90165983 61.8197097 -86.44911616 60.18259823 -84.5 58.25 C-83.8915625 57.63640625 -83.283125 57.0228125 -82.65625 56.390625 C-81 55 -81 55 -79 55 C-79 54.34 -79 53.68 -79 53 C-78.34 53 -77.68 53 -77 53 C-77 52.34 -77 51.68 -77 51 C-76.34 51 -75.68 51 -75 51 C-75 50.34 -75 49.68 -75 49 C-73.7421875 47.6953125 -73.7421875 47.6953125 -71.875 46.125 C-71.1428125 45.50496094 -70.410625 44.88492188 -69.65625 44.24609375 C-68.7796875 43.50488281 -67.903125 42.76367188 -67 42 C-65.94633365 41.07602084 -64.89435055 40.15011986 -63.84375 39.22265625 C-55.91422115 32.25845146 -47.7324687 25.92250362 -39 20 C-37.92621094 19.26265625 -36.85242188 18.5253125 -35.74609375 17.765625 C-28.678545 13.05948865 -21.37311353 8.92149381 -13.875 4.9375 C-12.96161865 4.44773682 -12.0482373 3.95797363 -11.10717773 3.45336914 C-10.24423096 3.00340576 -9.38128418 2.55344238 -8.4921875 2.08984375 C-7.72245605 1.68628662 -6.95272461 1.28272949 -6.15966797 0.86694336 C-4 0 -4 0 0 0 Z " fill="#826393" transform="translate(383,113)"/>
<path d="M0 0 C3.48608923 2.82459222 4.80579578 5.44720071 6.125 9.6875 C6.43695313 10.66074219 6.74890625 11.63398438 7.0703125 12.63671875 C7.37710938 13.74660156 7.68390625 14.85648438 8 16 C8.18095215 16.60666504 8.3619043 17.21333008 8.54833984 17.83837891 C10.5626674 25.43223148 10.3955658 33.20077525 10.375 41 C10.37478851 41.73544037 10.37457703 42.47088074 10.37435913 43.22860718 C10.32862809 59.12935568 7.85396235 72.48809145 1 87 C0.57074219 87.97195313 0.14148438 88.94390625 -0.30078125 89.9453125 C-5.53822504 101.24638839 -13.11589849 110.34184053 -21.8125 119.125 C-22.35140869 119.66954834 -22.89031738 120.21409668 -23.44555664 120.77514648 C-30.80511275 128 -30.80511275 128 -35 128 C-35 128.66 -35 129.32 -35 130 C-38 132 -38 132 -41 132 C-41 132.66 -41 133.32 -41 134 C-55.7215168 141.08813772 -71.41169143 147.61550278 -88 148 C-88.96421875 148.03867187 -89.9284375 148.07734375 -90.921875 148.1171875 C-118.05667481 148.71282945 -143.89851445 140.15162907 -165 123 C-165 122.34 -165 121.68 -165 121 C-165.8971875 120.62875 -165.8971875 120.62875 -166.8125 120.25 C-169.41320743 118.76388147 -170.54416577 117.62050161 -172 115 C-172.53839012 111.30818203 -172.49094235 109.6909559 -170.3125 106.625 C-167.46917159 104.62698544 -166.4179788 104.51525047 -163 105 C-160.34375 106.90625 -160.34375 106.90625 -157.5 109.5 C-136.73967504 127.72976496 -113.0264631 134.12979962 -86 133 C-61.67345518 130.81861857 -39.76588109 118.39264172 -24 100 C-11.65275012 84.63996965 -4.95750828 65.65884187 -4 46 C-3.95875 45.28714844 -3.9175 44.57429688 -3.875 43.83984375 C-3.53918472 32.61102048 -5.7621904 21.71342881 -9.29296875 11.12109375 C-10.081333 7.64096647 -10.00443405 5.41507576 -9 2 C-5.50875983 -0.32749345 -4.10777749 -0.50299316 0 0 Z " fill="#634871" transform="translate(345,178)"/>
<path d="M0 0 C0.66322266 0.31155029 1.32644531 0.62310059 2.00976562 0.9440918 C6.63284594 3.27044952 9.41351198 5.79297424 12.375 10.0625 C12.44651181 13.7096025 12.07083827 15.29210763 9.625 18 C5.87877032 19.7690529 3.1384799 18.3169933 -0.625 17.0625 C-0.625 16.4025 -0.625 15.7425 -0.625 15.0625 C-1.20910645 14.929646 -1.79321289 14.79679199 -2.39501953 14.65991211 C-5.92158232 13.7151454 -9.17958617 12.12070935 -12.5 10.625 C-34.54683239 0.70597058 -58.26137202 0.19944198 -81.01953125 8.265625 C-86.55859325 10.46731505 -91.76269922 13.09684477 -96.8828125 16.14453125 C-98.625 17.0625 -98.625 17.0625 -100.625 17.0625 C-100.625 17.7225 -100.625 18.3825 -100.625 19.0625 C-102.26953125 20.53515625 -102.26953125 20.53515625 -104.4375 22.125 C-105.14519531 22.65222656 -105.85289062 23.17945313 -106.58203125 23.72265625 C-108.625 25.0625 -108.625 25.0625 -111.625 26.0625 C-111.625 26.7225 -111.625 27.3825 -111.625 28.0625 C-112.285 28.0625 -112.945 28.0625 -113.625 28.0625 C-113.625 28.7225 -113.625 29.3825 -113.625 30.0625 C-114.285 30.0625 -114.945 30.0625 -115.625 30.0625 C-115.625 30.7225 -115.625 31.3825 -115.625 32.0625 C-116.285 32.0625 -116.945 32.0625 -117.625 32.0625 C-117.86734375 32.58972656 -118.1096875 33.11695313 -118.359375 33.66015625 C-119.65894353 36.12692986 -121.14713543 38.4144144 -122.6965332 40.73022461 C-136.94010207 62.12065982 -143.1403949 86.79592699 -138.4375 112.3125 C-136.60633637 121.44007691 -133.72828242 130.38072451 -129.25 138.5625 C-127.4598959 142.41810882 -127.20458439 144.08533629 -128.625 148.0625 C-132.14324511 150.40799674 -133.48275694 150.64241403 -137.625 150.0625 C-141.81969187 146.55035673 -144.10490274 142.7224593 -146.1875 137.75 C-146.48414551 137.05358398 -146.78079102 136.35716797 -147.08642578 135.63964844 C-151.64873231 124.54160734 -154.25473899 113.07915284 -154.625 101.0625 C-154.65335938 100.16273438 -154.68171875 99.26296875 -154.7109375 98.3359375 C-154.75076038 95.57222931 -154.70894844 92.82516698 -154.625 90.0625 C-154.58246094 88.56976563 -154.58246094 88.56976563 -154.5390625 87.046875 C-153.48210403 66.61234459 -145.81792237 47.3995787 -133.625 31.0625 C-132.99980469 30.20398438 -132.37460938 29.34546875 -131.73046875 28.4609375 C-126.76347213 21.92594806 -121.06472924 16.15790866 -114.625 11.0625 C-113.965 11.0625 -113.305 11.0625 -112.625 11.0625 C-112.625 10.4025 -112.625 9.7425 -112.625 9.0625 C-78.86021757 -15.7059323 -37.17167467 -17.89889523 0 0 Z " fill="#A17BB3" transform="translate(298.625,124.9375)"/>
<path d="M0 0 C3.48608923 2.82459222 4.80579578 5.44720071 6.125 9.6875 C6.43695313 10.66074219 6.74890625 11.63398438 7.0703125 12.63671875 C7.37710938 13.74660156 7.68390625 14.85648438 8 16 C8.27142822 16.90999756 8.27142822 16.90999756 8.54833984 17.83837891 C10.5626674 25.43223148 10.3955658 33.20077525 10.375 41 C10.37478851 41.73544037 10.37457703 42.47088074 10.37435913 43.22860718 C10.32862809 59.12935568 7.85396235 72.48809145 1 87 C0.57074219 87.97195313 0.14148438 88.94390625 -0.30078125 89.9453125 C-6.15222411 102.57124273 -14.95941247 112.53621218 -25 122 C-25.33 121.34 -25.66 120.68 -26 120 C-28.32156597 119.59270772 -30.6568787 119.25561323 -33 119 C-35.34146341 114.40379404 -35.34146341 114.40379404 -35 111 C-33.08387133 108.60769622 -30.98959088 106.6118189 -28.72851562 104.55029297 C-12.75830055 89.79822942 -5.03941705 67.34053138 -4 46 C-3.95875 45.28714844 -3.9175 44.57429688 -3.875 43.83984375 C-3.53918472 32.61102048 -5.7621904 21.71342881 -9.29296875 11.12109375 C-10.081333 7.64096647 -10.00443405 5.41507576 -9 2 C-5.50875983 -0.32749345 -4.10777749 -0.50299316 0 0 Z " fill="#7D618D" transform="translate(345,178)"/>
<path d="M0 0 C0.99 0.33 1.98 0.66 3 1 C5.14255793 0.61067144 5.14255793 0.61067144 7 0 C7.33 0.66 7.66 1.32 8 2 C8.34426025 2.60102539 8.68852051 3.20205078 9.04321289 3.82128906 C10.14226491 6.32395307 10.26863025 8.13349881 10.30859375 10.859375 C10.33147461 11.80240479 10.35435547 12.74543457 10.37792969 13.71704102 C10.39758789 14.71791748 10.41724609 15.71879395 10.4375 16.75 C10.97510354 33.13282787 13.37639827 48.88663767 21.375 63.5 C23.1651041 67.35560882 23.42041561 69.02283629 22 73 C18.48175489 75.34549674 17.14224306 75.57991403 13 75 C8.80530813 71.48785673 6.52009726 67.6599593 4.4375 62.6875 C4.14085449 61.99108398 3.84420898 61.29466797 3.53857422 60.57714844 C-1.02659687 49.47213915 -3.61328289 38.02185795 -4 26 C-4.03996094 25.08863281 -4.07992187 24.17726562 -4.12109375 23.23828125 C-4.28886896 16.32002094 -3.32519816 9.77980847 -2 3 C-1.34 3 -0.68 3 0 3 C0 2.01 0 1.02 0 0 Z " fill="#846695" transform="translate(148,200)"/>
<path d="M0 0 C2.31 0 4.62 0 7 0 C8.17407021 2.26727333 9.33939739 4.53834624 10.5 6.8125 C10.83386719 7.45509766 11.16773438 8.09769531 11.51171875 8.75976562 C13.00239084 11.69547699 14 13.66126517 14 17 C14.66 17 15.32 17 16 17 C16.67408308 18.26691507 17.33900497 19.53870749 18 20.8125 C18.556875 21.87404297 18.556875 21.87404297 19.125 22.95703125 C20 25 20 25 20 28 C23.25822383 25.25783026 24.95290274 21.65327855 26.875 17.9375 C27.22433594 17.27226318 27.57367188 16.60702637 27.93359375 15.92163086 C30.69208428 10.64958034 33.38437116 5.34443392 36 0 C37.98 0 39.96 0 42 0 C42 12.21 42 24.42 42 37 C40.35 36.67 38.7 36.34 37 36 C36.67 28.41 36.34 20.82 36 13 C32.83960783 19.3996361 32.83960783 19.3996361 29.68823242 25.80371094 C29.28967041 26.60583008 28.8911084 27.40794922 28.48046875 28.234375 C28.07723389 29.05131836 27.67399902 29.86826172 27.25854492 30.70996094 C26.00966626 32.98241135 24.60567838 34.96790894 23 37 C21.25 36.875 21.25 36.875 19 36 C15.69161431 31.52920853 13.24667911 26.73709866 10.8125 21.75 C10.45736328 21.03070313 10.10222656 20.31140625 9.73632812 19.5703125 C8.82091514 17.71516816 7.9101275 15.85774309 7 14 C6.67 13.34 6.34 12.68 6 12 C5.67 20.25 5.34 28.5 5 37 C3.35 37 1.7 37 0 37 C0 24.79 0 12.58 0 0 Z " fill="#7F688A" transform="translate(210,350)"/>
<path d="M0 0 C0.99 0.66 1.98 1.32 3 2 C3.99 1.67 4.98 1.34 6 1 C6.68707555 3.49064888 7 5.37886292 7 8 C7.07605469 8.75410156 7.15210938 9.50820312 7.23046875 10.28515625 C6.91183655 14.03853558 5.30259945 16.25554801 3.3125 19.4375 C-3.74838039 31.24667051 -6.85111936 43.54765777 -9 57 C-9.33 57 -9.66 57 -10 57 C-10.66 54.36 -11.32 51.72 -12 49 C-12.66 49 -13.32 49 -14 49 C-14 48.34 -14 47.68 -14 47 C-16.475 47.495 -16.475 47.495 -19 48 C-19.33 47.34 -19.66 46.68 -20 46 C-20 46.99 -20 47.98 -20 49 C-20.66 49 -21.32 49 -22 49 C-22 50.98 -22 52.96 -22 55 C-22.33 55 -22.66 55 -23 55 C-23.56472136 36.67008601 -14.37932237 16.12953553 -3 2 C-2.01 1.34 -1.02 0.68 0 0 Z " fill="#9270A4" transform="translate(168,154)"/>
<path d="M0 0 C9.9 0 19.8 0 30 0 C30 0.66 30 1.32 30 2 C30.66 2 31.32 2 32 2 C32.08089542 4.77141717 32.14044062 7.54047819 32.1875 10.3125 C32.21263672 11.09818359 32.23777344 11.88386719 32.26367188 12.69335938 C32.27333984 13.45068359 32.28300781 14.20800781 32.29296875 14.98828125 C32.3086792 15.68477783 32.32438965 16.38127441 32.34057617 17.09887695 C31.89491202 19.58660938 30.9490486 20.44376011 29 22 C26.8125 22.6875 26.8125 22.6875 25 23 C25.495 23.61875 25.99 24.2375 26.5 24.875 C28 27 28 27 28 29 C28.66 29 29.32 29 30 29 C34 33.35294118 34 33.35294118 34 37 C32.02 37 30.04 37 28 37 C28 36.34 28 35.68 28 35 C27.34 35 26.68 35 26 35 C21 29.52380952 21 29.52380952 21 27 C20.34 27 19.68 27 19 27 C18.4740625 26.0409375 18.4740625 26.0409375 17.9375 25.0625 C14.91010119 21.83978514 11.25576299 22.1784387 7 22 C7 20.35 7 18.7 7 17 C13.6 17 20.2 17 27 17 C27 13.04 27 9.08 27 5 C19.74 5 12.48 5 5 5 C5 15.23 5 25.46 5 36 C2.525 36.495 2.525 36.495 0 37 C0 24.79 0 12.58 0 0 Z " fill="#877190" transform="translate(403,350)"/>
<path d="M0 0 C1.12067871 0.01047363 2.24135742 0.02094727 3.39599609 0.03173828 C5.21357422 0.04140625 5.21357422 0.04140625 7.06787109 0.05126953 C8.33888672 0.06802734 9.60990234 0.08478516 10.91943359 0.10205078 C12.19818359 0.11107422 13.47693359 0.12009766 14.79443359 0.12939453 C17.96128526 0.15302775 21.12776783 0.18597449 24.29443359 0.22705078 C24.62443359 0.88705078 24.95443359 1.54705078 25.29443359 2.22705078 C24.96443359 3.21705078 24.63443359 4.20705078 24.29443359 5.22705078 C16.37443359 5.22705078 8.45443359 5.22705078 0.29443359 5.22705078 C0.29443359 8.52705078 0.29443359 11.82705078 0.29443359 15.22705078 C1.76396484 15.19224609 3.23349609 15.15744141 4.74755859 15.12158203 C6.67983883 15.09344203 8.61213143 15.0661421 10.54443359 15.03955078 C11.9965625 15.0018457 11.9965625 15.0018457 13.47802734 14.96337891 C14.87988281 14.94887695 14.87988281 14.94887695 16.31005859 14.93408203 C17.16889648 14.91837158 18.02773438 14.90266113 18.91259766 14.88647461 C21.83979214 15.30503102 23.16780779 16.19975844 25.29443359 18.22705078 C27.05939774 23.52194321 27.19003077 29.13732405 24.98193359 34.28955078 C23.29443359 36.22705078 23.29443359 36.22705078 20.29443359 37.22705078 C18.37536442 37.30971564 16.45353886 37.33445741 14.53271484 37.32470703 C13.41445313 37.32148438 12.29619141 37.31826172 11.14404297 37.31494141 C9.97679687 37.3065625 8.80955078 37.29818359 7.60693359 37.28955078 C6.42808594 37.28503906 5.24923828 37.28052734 4.03466797 37.27587891 C1.12120571 37.26408351 -1.79215504 37.24762349 -4.70556641 37.22705078 C-4.70556641 35.24705078 -4.70556641 33.26705078 -4.70556641 31.22705078 C3.21443359 30.89705078 11.13443359 30.56705078 19.29443359 30.22705078 C19.62443359 27.25705078 19.95443359 24.28705078 20.29443359 21.22705078 C18.98087891 21.25025391 17.66732422 21.27345703 16.31396484 21.29736328 C14.57829346 21.3161273 12.84261591 21.33432682 11.10693359 21.35205078 C9.81045898 21.3771875 9.81045898 21.3771875 8.48779297 21.40283203 C3.99084499 21.4372914 0.35408469 21.42365558 -3.70556641 19.22705078 C-5.7482307 17.18438649 -4.89064585 13.09013644 -4.89306641 10.28955078 C-4.9053125 9.54769531 -4.91755859 8.80583984 -4.93017578 8.04150391 C-4.93545118 6.10191449 -4.82745543 4.16281368 -4.70556641 2.22705078 C-2.70556641 0.22705078 -2.70556641 0.22705078 0 0 Z " fill="#634E6F" transform="translate(304.70556640625,349.77294921875)"/>
<path d="M0 0 C1.81274414 0.01450195 1.81274414 0.01450195 3.66210938 0.02929688 C5.55606445 0.06700195 5.55606445 0.06700195 7.48828125 0.10546875 C9.39963867 0.12577148 9.39963867 0.12577148 11.34960938 0.14648438 C14.50042182 0.18188676 17.6503917 0.23127085 20.80078125 0.29296875 C20.80078125 1.94296875 20.80078125 3.59296875 20.80078125 5.29296875 C12.55078125 5.29296875 4.30078125 5.29296875 -4.19921875 5.29296875 C-4.19921875 8.59296875 -4.19921875 11.89296875 -4.19921875 15.29296875 C-1.88664063 15.22335937 -1.88664063 15.22335937 0.47265625 15.15234375 C2.49867855 15.11482482 4.5247218 15.07842479 6.55078125 15.04296875 C7.5665625 15.00945312 8.58234375 14.9759375 9.62890625 14.94140625 C17.03751749 14.84392452 17.03751749 14.84392452 20.4765625 16.8671875 C22.27395226 20.15975105 22.29723296 22.61793063 22.23828125 26.35546875 C22.23699219 27.58394531 22.23570312 28.81242187 22.234375 30.078125 C21.80078125 33.29296875 21.80078125 33.29296875 20.3984375 35.1640625 C17.1903852 37.43087696 15.03366389 37.41030654 11.13671875 37.390625 C10.01523438 37.38740234 8.89375 37.38417969 7.73828125 37.38085938 C6.56265625 37.37248047 5.38703125 37.36410156 4.17578125 37.35546875 C2.99242187 37.35095703 1.8090625 37.34644531 0.58984375 37.34179688 C-2.33989382 37.32998342 -5.26953147 37.31351133 -8.19921875 37.29296875 C-8.58140642 35.63682218 -8.91316977 33.96839851 -9.19921875 32.29296875 C-8.19921875 31.29296875 -8.19921875 31.29296875 -5.88256836 31.17944336 C-4.88233643 31.18468018 -3.88210449 31.18991699 -2.8515625 31.1953125 C-1.77197266 31.19853516 -0.69238281 31.20175781 0.41992188 31.20507812 C2.12438477 31.21764648 2.12438477 31.21764648 3.86328125 31.23046875 C5.57354492 31.23723633 5.57354492 31.23723633 7.31835938 31.24414062 C10.14588476 31.25597128 12.97330765 31.27245465 15.80078125 31.29296875 C15.30578125 26.34296875 15.30578125 26.34296875 14.80078125 21.29296875 C13.23585937 21.25558594 11.6709375 21.21820313 10.05859375 21.1796875 C8.01429825 21.11404498 5.9700285 21.04759707 3.92578125 20.98046875 C2.37697266 20.94663086 2.37697266 20.94663086 0.796875 20.91210938 C-0.18925781 20.87666016 -1.17539063 20.84121094 -2.19140625 20.8046875 C-3.1026123 20.77850342 -4.01381836 20.75231934 -4.95263672 20.7253418 C-5.69400879 20.58265869 -6.43538086 20.43997559 -7.19921875 20.29296875 C-9.64430753 16.62533558 -9.49807599 14.658651 -9.51171875 10.29296875 C-9.52847656 9.05546875 -9.54523438 7.81796875 -9.5625 6.54296875 C-9.19921875 3.29296875 -9.19921875 3.29296875 -8.06396484 1.6081543 C-5.35651001 -0.30138474 -3.28621623 -0.04628474 0 0 Z " fill="#887393" transform="translate(146.19921875,349.70703125)"/>
<path d="M0 0 C2 2 2 2 3 5 C3.66 5 4.32 5 5 5 C5.66 4.34 6.32 3.68 7 3 C7 4.32 7 5.64 7 7 C7.66 7 8.32 7 9 7 C9 6.34 9 5.68 9 5 C9.99 5 10.98 5 12 5 C12.38671875 6.2065625 12.7734375 7.413125 13.171875 8.65625 C13.69758813 10.27094033 14.2236484 11.88551768 14.75 13.5 C15.00265625 14.29148438 15.2553125 15.08296875 15.515625 15.8984375 C17.05844131 20.60402725 18.84095873 24.92047722 21.24536133 29.25439453 C22.47716507 32.10376261 22.01669711 34.15324809 21 37 C17.48175489 39.34549674 16.14224306 39.57991403 12 39 C7.44173735 35.25209516 5.42432737 31.25631427 3.25 25.9375 C2.94707031 25.23044922 2.64414063 24.52339844 2.33203125 23.79492188 C-0.12817114 17.97244289 -1.13913349 13.62310201 -1.125 7.3125 C-1.12757813 6.15363281 -1.13015625 4.99476563 -1.1328125 3.80078125 C-1 1 -1 1 0 0 Z " fill="#795D89" transform="translate(149,236)"/>
<path d="M0 0 C9.57 0 19.14 0 29 0 C29.33 1.32 29.66 2.64 30 4 C29 5 29 5 26.68334961 5.11352539 C25.68311768 5.10828857 24.68288574 5.10305176 23.65234375 5.09765625 C22.68031006 5.09515869 21.70827637 5.09266113 20.70678711 5.09008789 C19.46292236 5.08098389 18.21905762 5.07187988 16.9375 5.0625 C12.998125 5.041875 9.05875 5.02125 5 5 C5 13.58 5 22.16 5 31 C13.25 31 21.5 31 30 31 C30 32.65 30 34.3 30 36 C29 37 29 37 26.22436523 37.11352539 C25.01466064 37.10828857 23.80495605 37.10305176 22.55859375 37.09765625 C21.38353271 37.09515869 20.20847168 37.09266113 18.99780273 37.09008789 C17.49290283 37.08098389 15.98800293 37.07187988 14.4375 37.0625 C9.673125 37.041875 4.90875 37.02125 0 37 C0 24.79 0 12.58 0 0 Z " fill="#7A6585" transform="translate(369,350)"/>
<path d="M0 0 C1.98 0 3.96 0 6 0 C19.00187617 24.11257036 19.00187617 24.11257036 24 36 C23 37 23 37 20.4375 37.0625 C19.633125 37.041875 18.82875 37.02125 18 37 C7.09310732 16.38009868 7.09310732 16.38009868 3 8 C-1.27429898 14.77131214 -4.83926299 21.64359438 -8 29 C-8.66 29 -9.32 29 -10 29 C-10.12375 29.5775 -10.2475 30.155 -10.375 30.75 C-11.00648824 33.02335767 -11.88858191 34.9253529 -13 37 C-14.65 37 -16.3 37 -18 37 C-17.41342258 32.01409189 -15.1370077 28.19272508 -12.75 23.875 C-9.21863537 17.3618749 -5.92763466 10.81153191 -3 4 C-2.34 4 -1.68 4 -1 4 C-0.67 2.68 -0.34 1.36 0 0 Z " fill="#6E5876" transform="translate(111,350)"/>
<path d="M0 0 C1.4540625 0.0309375 1.4540625 0.0309375 2.9375 0.0625 C5.9607302 5.7170602 8.96132944 11.38302249 11.9375 17.0625 C12.33727051 17.8251416 12.73704102 18.5877832 13.14892578 19.37353516 C14.27596722 21.53570122 15.39013903 23.70397397 16.5 25.875 C17.01916992 26.86886719 17.01916992 26.86886719 17.54882812 27.8828125 C19.27243711 31.28773332 19.9375 33.15716391 19.9375 37.0625 C18.2875 37.0625 16.6375 37.0625 14.9375 37.0625 C9.45698379 27.57511749 4.32643039 18.11401117 -0.0625 8.0625 C-4.08225101 14.14955153 -7.17138124 20.36986763 -10.0625 27.0625 C-10.7225 27.0625 -11.3825 27.0625 -12.0625 27.0625 C-12.2171875 28.1453125 -12.2171875 28.1453125 -12.375 29.25 C-13.14991809 32.42011946 -14.01980482 34.50913103 -16.0625 37.0625 C-18.75 37.375 -18.75 37.375 -21.0625 37.0625 C-20.46645796 32.60477712 -18.66544627 29.11931191 -16.5 25.25 C-13.0397228 18.93247487 -9.76435973 12.54440875 -6.58959961 6.07885742 C-3.62520647 0.07398381 -3.62520647 0.07398381 0 0 Z " fill="#796084" transform="translate(277.0625,349.9375)"/>
<path d="M0 0 C2.7265625 1.94140625 2.7265625 1.94140625 5.625 4.5625 C11.06032372 9.35043601 16.76431523 13.29295905 23 17 C20 19 20 19 17 20 C13.9890638 17.9927092 13.36983503 17.16115776 12 14 C10.99782936 17.58327753 10.99782936 17.58327753 12 21 C11.67 21.66 11.34 22.32 11 23 C10.34 23 9.68 23 9 23 C8.67 23.66 8.34 24.32 8 25 C6.3278148 23.88321917 4.66237197 22.75633648 3 21.625 C2.071875 20.99851562 1.14375 20.37203125 0.1875 19.7265625 C-0.534375 19.15679687 -1.25625 18.58703125 -2 18 C-2 17.34 -2 16.68 -2 16 C-2.598125 15.7525 -3.19625 15.505 -3.8125 15.25 C-6.41320743 13.76388147 -7.54416577 12.62050161 -9 10 C-9.53839012 6.30818203 -9.49094235 4.6909559 -7.3125 1.625 C-4.46566361 -0.37547963 -3.42280795 -0.48897256 0 0 Z " fill="#755A82" transform="translate(182,283)"/>
<path d="M0 0 C-0.8125 1.9375 -0.8125 1.9375 -2 4 C-2.99 4.33 -3.98 4.66 -5 5 C-5 5.66 -5 6.32 -5 7 C-10.47619048 12 -10.47619048 12 -13 12 C-13 12.66 -13 13.32 -13 14 C-13.99 14.66 -14.98 15.32 -16 16 C-14.64752902 19.04119394 -13.15125209 21.06224575 -10.7421875 23.34765625 C-10.11699219 23.95287109 -9.49179688 24.55808594 -8.84765625 25.18164062 C-7.52650762 26.44131006 -6.20357227 27.69910809 -4.87890625 28.95507812 C-4.25628906 29.55900391 -3.63367188 30.16292969 -2.9921875 30.78515625 C-2.41839355 31.33051025 -1.84459961 31.87586426 -1.25341797 32.43774414 C0 34 0 34 0 37 C-2.49609375 37.50390625 -2.49609375 37.50390625 -6 37 C-9.00783562 34.61812558 -11.5015398 31.78540252 -14.0625 28.9375 C-15.43460968 27.41250902 -16.82080878 25.90004404 -18.22265625 24.40234375 C-18.82859619 23.72679443 -19.43453613 23.05124512 -20.05883789 22.35522461 C-21.98354801 20.69630884 -21.98354801 20.69630884 -24.73608398 21.28735352 C-25.48317627 21.52252686 -26.23026855 21.7577002 -27 22 C-26.58897814 17.085228 -24.59790786 15.27687802 -20.9375 12.125 C-19.94105469 11.26390625 -18.94460937 10.4028125 -17.91796875 9.515625 C-16.95503906 8.68546875 -15.99210938 7.8553125 -15 7 C-14.25363281 6.27296875 -13.50726563 5.5459375 -12.73828125 4.796875 C-8.40900422 0.61219072 -6.06548557 -0.88454998 0 0 Z " fill="#7C6686" transform="translate(207,350)"/>
<path d="M0 0 C0.99 0.33 1.98 0.66 3 1 C1.33333333 2.66666667 -0.33333333 4.33333333 -2 6 C-2.53625 6.598125 -3.0725 7.19625 -3.625 7.8125 C-5 9 -5 9 -8 9 C-8.474375 9.474375 -8.94875 9.94875 -9.4375 10.4375 C-11.26740325 12.26740325 -12.53364897 12.42451809 -15 13 C-15.33 13.66 -15.66 14.32 -16 15 C-16.66 15 -17.32 15 -18 15 C-18 16.32 -18 17.64 -18 19 C-18.66 18.67 -19.32 18.34 -20 18 C-20.556875 18.433125 -21.11375 18.86625 -21.6875 19.3125 C-24 21 -24 21 -26.75 22.4375 C-27.4925 22.953125 -28.235 23.46875 -29 24 C-29 25.32 -29 26.64 -29 28 C-29.495 27.01 -29.495 27.01 -30 26 C-30.99 26 -31.98 26 -33 26 C-33 27.32 -33 28.64 -33 30 C-34.625 31.5 -34.625 31.5 -37 33 C-40.23003745 35.06172603 -42.97048631 36.97048631 -45.6875 39.6875 C-48 42 -48 42 -51 43 C-50.67 43.66 -50.34 44.32 -50 45 C-50.804375 45.20625 -51.60875 45.4125 -52.4375 45.625 C-53.7059375 46.305625 -53.7059375 46.305625 -55 47 C-55.89830839 50.05272465 -55.89830839 50.05272465 -56 53 C-56.66 53 -57.32 53 -58 53 C-58 52.34 -58 51.68 -58 51 C-60.97 51.495 -60.97 51.495 -64 52 C-63.04882866 50.8274869 -62.08882991 49.66212985 -61.125 48.5 C-60.32449219 47.52546875 -60.32449219 47.52546875 -59.5078125 46.53125 C-59.01023437 46.0259375 -58.51265625 45.520625 -58 45 C-57.34 45 -56.68 45 -56 45 C-56 44.34 -56 43.68 -56 43 C-55.34 43 -54.68 43 -54 43 C-54 42.34 -54 41.68 -54 41 C-53.34 41 -52.68 41 -52 41 C-52 40.34 -52 39.68 -52 39 C-50.7421875 37.6953125 -50.7421875 37.6953125 -48.875 36.125 C-47.77671875 35.19494141 -47.77671875 35.19494141 -46.65625 34.24609375 C-45.7796875 33.50488281 -44.903125 32.76367188 -44 32 C-42.94633365 31.07602084 -41.89435055 30.15011986 -40.84375 29.22265625 C-28.49283179 18.37531268 -14.77733592 7.38866796 0 0 Z " fill="#A887B5" transform="translate(360,123)"/>
<path d="M0 0 C2.31 0 4.62 0 7 0 C8.17407021 2.26727333 9.33939739 4.53834624 10.5 6.8125 C10.83386719 7.45509766 11.16773438 8.09769531 11.51171875 8.75976562 C13.00239084 11.69547699 14 13.66126517 14 17 C14.66 17 15.32 17 16 17 C15.67 17.66 15.34 18.32 15 19 C14.34 19 13.68 19 13 19 C12.34 19.99 11.68 20.98 11 22 C9.35 18.7 7.7 15.4 6 12 C5.67 20.25 5.34 28.5 5 37 C3.35 37 1.7 37 0 37 C0 24.79 0 12.58 0 0 Z " fill="#7E698A" transform="translate(210,350)"/>
<path d="M0 0 C0.66 0.33 1.32 0.66 2 1 C2 2.32 2 3.64 2 5 C1.01 5.495 1.01 5.495 0 6 C0 6.66 0 7.32 0 8 C1.98 8 3.96 8 6 8 C6.33 7.34 6.66 6.68 7 6 C7.66 6.66 8.32 7.32 9 8 C7.71034824 9.37562854 6.37310707 10.70766393 5 12 C4.34 12 3.68 12 3 12 C3 12.66 3 13.32 3 14 C2.34 14 1.68 14 1 14 C1 14.66 1 15.32 1 16 C0.34 16 -0.32 16 -1 16 C-1 16.66 -1 17.32 -1 18 C-1.66 18 -2.32 18 -3 18 C-3.37125 18.8353125 -3.37125 18.8353125 -3.75 19.6875 C-5.21606015 22.39971127 -7.02989471 24.63587365 -9 27 C-9.66 24.69 -10.32 22.38 -11 20 C-10.34 20 -9.68 20 -9 20 C-9.33 18.68 -9.66 17.36 -10 16 C-11.98 16.99 -11.98 16.99 -14 18 C-14.99 17.34 -15.98 16.68 -17 16 C-14.60530533 11.03956104 -13.0447015 8.94264902 -7.81640625 6.890625 C-4.97206898 5.49598221 -3.08871769 3.33444919 -1 1 C-0.67 0.67 -0.34 0.34 0 0 Z " fill="#9C75AE" transform="translate(184,139)"/>
<path d="M0 0 C3.62173101 2.90291417 4.92119459 5.75232587 6.3125 10.125 C6.65925781 11.17945313 7.00601562 12.23390625 7.36328125 13.3203125 C8 16 8 16 7 18 C5.35 16.68 3.7 15.36 2 14 C-1.35622898 18.5052839 -1.35622898 18.5052839 -2 24 C-2.66 24 -3.32 24 -4 24 C-4.33 24.66 -4.66 25.32 -5 26 C-5.86975343 23.12891082 -6.72100833 20.25437467 -7.5625 17.375 C-7.80935547 16.56675781 -8.05621094 15.75851563 -8.31054688 14.92578125 C-9.63794325 10.32663324 -10.55631456 6.70513704 -9 2 C-5.50875983 -0.32749345 -4.10777749 -0.50299316 0 0 Z " fill="#926EA1" transform="translate(345,178)"/>
<path d="M0 0 C1.12067871 0.01047363 2.24135742 0.02094727 3.39599609 0.03173828 C5.21357422 0.04140625 5.21357422 0.04140625 7.06787109 0.05126953 C8.33888672 0.06802734 9.60990234 0.08478516 10.91943359 0.10205078 C12.19818359 0.11107422 13.47693359 0.12009766 14.79443359 0.12939453 C17.96128526 0.15302775 21.12776783 0.18597449 24.29443359 0.22705078 C24.62443359 0.88705078 24.95443359 1.54705078 25.29443359 2.22705078 C24.96443359 3.21705078 24.63443359 4.20705078 24.29443359 5.22705078 C16.37443359 5.22705078 8.45443359 5.22705078 0.29443359 5.22705078 C0.29443359 8.52705078 0.29443359 11.82705078 0.29443359 15.22705078 C7.22443359 15.22705078 14.15443359 15.22705078 21.29443359 15.22705078 C21.29443359 15.55705078 21.29443359 15.88705078 21.29443359 16.22705078 C10.89943359 16.72205078 10.89943359 16.72205078 0.29443359 17.22705078 C0.29443359 18.21705078 0.29443359 19.20705078 0.29443359 20.22705078 C-3.58056641 19.35205078 -3.58056641 19.35205078 -4.70556641 18.22705078 C-4.83214862 15.56882421 -4.89076854 12.94817655 -4.89306641 10.28955078 C-4.9053125 9.54769531 -4.91755859 8.80583984 -4.93017578 8.04150391 C-4.93545118 6.10191449 -4.82745543 4.16281368 -4.70556641 2.22705078 C-2.70556641 0.22705078 -2.70556641 0.22705078 0 0 Z " fill="#84708E" transform="translate(304.70556640625,349.77294921875)"/>
<path d="M0 0 C0.33 0 0.66 0 1 0 C1 3.96 1 7.92 1 12 C1.66 12 2.32 12 3 12 C2.25 13.9375 2.25 13.9375 1 16 C-1.125 16.75 -1.125 16.75 -3 17 C-2.505 17.61875 -2.01 18.2375 -1.5 18.875 C0 21 0 21 0 23 C0.66 23 1.32 23 2 23 C6 27.35294118 6 27.35294118 6 31 C4.02 31 2.04 31 0 31 C0 30.34 0 29.68 0 29 C-0.66 29 -1.32 29 -2 29 C-7 23.52380952 -7 23.52380952 -7 21 C-7.66 21 -8.32 21 -9 21 C-9.350625 20.360625 -9.70125 19.72125 -10.0625 19.0625 C-13.08989881 15.83978514 -16.74423701 16.1784387 -21 16 C-21 14.35 -21 12.7 -21 11 C-14.07 11 -7.14 11 0 11 C0 7.37 0 3.74 0 0 Z " fill="#97849F" transform="translate(431,356)"/>
<path d="M0 0 C0.66 0 1.32 0 2 0 C2.08097324 2.27024968 2.13917704 4.54132075 2.1875 6.8125 C2.23970703 8.70935547 2.23970703 8.70935547 2.29296875 10.64453125 C2 14 2 14 0.61328125 15.88671875 C-2.6181928 18.11667058 -4.7619038 18.11736412 -8.6640625 18.09765625 C-9.78554687 18.09443359 -10.90703125 18.09121094 -12.0625 18.08789062 C-13.238125 18.07951172 -14.41375 18.07113281 -15.625 18.0625 C-16.80835938 18.05798828 -17.99171875 18.05347656 -19.2109375 18.04882812 C-22.14067507 18.03701467 -25.07031272 18.02054258 -28 18 C-28.38218767 16.34385343 -28.71395102 14.67542976 -29 13 C-28 12 -28 12 -25.68334961 11.88647461 C-24.68311768 11.89171143 -23.68288574 11.89694824 -22.65234375 11.90234375 C-21.57275391 11.90556641 -20.49316406 11.90878906 -19.38085938 11.91210938 C-17.67639648 11.92467773 -17.67639648 11.92467773 -15.9375 11.9375 C-14.22723633 11.94426758 -14.22723633 11.94426758 -12.48242188 11.95117188 C-9.65489649 11.96300253 -6.8274736 11.9794859 -4 12 C-3.67 8.7 -3.34 5.4 -3 2 C-2.34 2 -1.68 2 -1 2 C-0.67 1.34 -0.34 0.68 0 0 Z " fill="#5D4867" transform="translate(166,369)"/>
<path d="M0 0 C0.99 0.33 1.98 0.66 3 1 C4.1875 4.0625 4.1875 4.0625 5 7 C7.475 7.495 7.475 7.495 10 8 C9.875 9.75 9.875 9.75 9 12 C3.77777778 16 3.77777778 16 1 16 C1 16.66 1 17.32 1 18 C-2 20 -2 20 -5 20 C-5 20.66 -5 21.32 -5 22 C-5.66 21.67 -6.32 21.34 -7 21 C-5.68 19.02 -4.36 17.04 -3 15 C-4.65 15.66 -6.3 16.32 -8 17 C-8.66 16.34 -9.32 15.68 -10 15 C-9.34 14.01 -8.68 13.02 -8 12 C-8.99 12.33 -9.98 12.66 -11 13 C-11.66 11.68 -12.32 10.36 -13 9 C-11.71802734 8.15115234 -11.71802734 8.15115234 -10.41015625 7.28515625 C-9.2942305 6.54433159 -8.17834728 5.80344286 -7.0625 5.0625 C-6.49853516 4.68931641 -5.93457031 4.31613281 -5.35351562 3.93164062 C-2.53966389 2.14034283 -2.53966389 2.14034283 0 0 Z " fill="#6B5279" transform="translate(309,290)"/>
<path d="M0 0 C1.65 0 3.3 0 5 0 C5 12.21 5 24.42 5 37 C3.35 37 1.7 37 0 37 C0 24.79 0 12.58 0 0 Z " fill="#7F6989" transform="translate(173,350)"/>
<path d="M0 0 C3.82601307 1.45124634 5.22329124 3.35774704 7 7 C7 7.99 7 8.98 7 10 C9.25200304 8.06971168 10.16966513 6.63116276 11.4375 3.875 C13 1 13 1 15.1875 0.125 C16.0846875 0.063125 16.0846875 0.063125 17 0 C18.1588667 3.44422953 18.05785832 4.85247002 16.70703125 8.296875 C16.08183594 9.43640625 15.45664063 10.5759375 14.8125 11.75 C14.20019531 12.89984375 13.58789062 14.0496875 12.95703125 15.234375 C11 18 11 18 8.94921875 19.078125 C7 19 7 19 5.421875 17.8984375 C3.68644838 15.5813569 2.47267181 13.25014829 1.25 10.625 C0.80140625 9.68914062 0.3528125 8.75328125 -0.109375 7.7890625 C-1.09542341 4.70117407 -0.91475088 3.06776208 0 0 Z " fill="#624C69" transform="translate(223,368)"/>
<path d="M0 0 C0.33 0 0.66 0 1 0 C1 2.31 1 4.62 1 7 C1.65073486 6.98952637 2.30146973 6.97905273 2.97192383 6.96826172 C5.9187433 6.92670165 8.86550111 6.90067392 11.8125 6.875 C13.34874023 6.84986328 13.34874023 6.84986328 14.91601562 6.82421875 C15.89892578 6.81777344 16.88183594 6.81132812 17.89453125 6.8046875 C18.80050049 6.79421387 19.70646973 6.78374023 20.63989258 6.77294922 C23 7 23 7 26 9 C25.67 10.98 25.34 12.96 25 15 C24.67 14.34 24.34 13.68 24 13 C23.34 13 22.68 13 22 13 C22 14.98 22 16.96 22 19 C21.67 19 21.34 19 21 19 C20.67 17.02 20.34 15.04 20 13 C19.3387915 12.97494385 18.67758301 12.9498877 17.99633789 12.92407227 C15.01817695 12.80846898 12.0403608 12.68558246 9.0625 12.5625 C8.02158203 12.52318359 6.98066406 12.48386719 5.90820312 12.44335938 C4.91884766 12.40146484 3.92949219 12.35957031 2.91015625 12.31640625 C1.53549194 12.26141968 1.53549194 12.26141968 0.13305664 12.20532227 C-2 12 -2 12 -3 11 C-3.04092937 8.66702567 -3.04241723 6.33294775 -3 4 C-2.34 4 -1.68 4 -1 4 C-0.67 2.68 -0.34 1.36 0 0 Z " fill="#624B6F" transform="translate(141,358)"/>
<path d="M0 0 C10.56 0 21.12 0 32 0 C32 1.65 32 3.3 32 5 C21.11 5 10.22 5 -1 5 C-0.67 3.35 -0.34 1.7 0 0 Z " fill="#887391" transform="translate(63,350)"/>
<path d="M0 0 C0.99 0 1.98 0 3 0 C3.45402536 5.26993722 1.95207309 8.84008491 -0.5 13.375 C-0.83386719 14.01566406 -1.16773437 14.65632813 -1.51171875 15.31640625 C-2.33026451 16.88333671 -3.16364513 18.44250241 -4 20 C-4.66 20 -5.32 20 -6 20 C-6.12375 20.5775 -6.2475 21.155 -6.375 21.75 C-7.00648824 24.02335767 -7.88858191 25.9253529 -9 28 C-10.65 28 -12.3 28 -14 28 C-13.41468895 22.91384884 -11.0365896 18.91870373 -8.625 14.5 C-8.22539063 13.75363281 -7.82578125 13.00726563 -7.4140625 12.23828125 C-1.79504909 1.79504909 -1.79504909 1.79504909 0 0 Z " fill="#65506D" transform="translate(107,359)"/>
<path d="M0 0 C10.56 0 21.12 0 32 0 C32 1.65 32 3.3 32 5 C21.44 5 10.88 5 0 5 C0 3.35 0 1.7 0 0 Z " fill="#846E8C" transform="translate(333,350)"/>
<path d="M0 0 C1.65 0 3.3 0 5 0 C5 10.23 5 20.46 5 31 C3.35 31 1.7 31 0 31 C0 20.77 0 10.54 0 0 Z " fill="#786381" transform="translate(76,356)"/>
<path d="M0 0 C1.32 0 2.64 0 4 0 C4 10.23 4 20.46 4 31 C2.35 30.67 0.7 30.34 -1 30 C-1.15723924 19.95415947 -0.67192387 10.0188648 0 0 Z " fill="#503C5C" transform="translate(347,356)"/>
<path d="M0 0 C0 1.32 0 2.64 0 4 C-2.66178221 5.3308911 -4.68739396 5.11268993 -7.6640625 5.09765625 C-8.78554688 5.09443359 -9.90703125 5.09121094 -11.0625 5.08789062 C-12.238125 5.07951172 -13.41375 5.07113281 -14.625 5.0625 C-15.80835938 5.05798828 -16.99171875 5.05347656 -18.2109375 5.04882812 C-21.14067507 5.03701467 -24.07031272 5.02054258 -27 5 C-27 3.35 -27 1.7 -27 0 C-22.87536584 -0.19622046 -18.75028427 -0.38050216 -14.625 -0.5625 C-13.449375 -0.61857422 -12.27375 -0.67464844 -11.0625 -0.73242188 C-9.94101562 -0.78076172 -8.81953125 -0.82910156 -7.6640625 -0.87890625 C-6.10872803 -0.94960327 -6.10872803 -0.94960327 -4.52197266 -1.02172852 C-2 -1 -2 -1 0 0 Z " fill="#5D4965" transform="translate(327,382)"/>
<path d="M0 0 C0.66 0.33 1.32 0.66 2 1 C1.01 2.485 1.01 2.485 0 4 C0.33 4.66 0.66 5.32 1 6 C-0.22879434 6.77142672 -1.45805602 7.54210904 -2.6875 8.3125 C-3.41582031 8.77011719 -4.14414062 9.22773438 -4.89453125 9.69921875 C-6.53255693 10.71120864 -8.19879876 11.67758191 -9.875 12.625 C-12.27052256 13.97545892 -12.27052256 13.97545892 -14 17 C-14.99 17.33 -15.98 17.66 -17 18 C-16.67 18.66 -16.34 19.32 -16 20 C-16.804375 20.20625 -17.60875 20.4125 -18.4375 20.625 C-19.7059375 21.305625 -19.7059375 21.305625 -21 22 C-21.89830839 25.05272465 -21.89830839 25.05272465 -22 28 C-22.66 28 -23.32 28 -24 28 C-24 27.34 -24 26.68 -24 26 C-25.98 26.33 -27.96 26.66 -30 27 C-29.04882866 25.8274869 -28.08882991 24.66212985 -27.125 23.5 C-26.59132813 22.8503125 -26.05765625 22.200625 -25.5078125 21.53125 C-25.01023437 21.0259375 -24.51265625 20.520625 -24 20 C-23.34 20 -22.68 20 -22 20 C-22 19.34 -22 18.68 -22 18 C-21.34 18 -20.68 18 -20 18 C-20 17.34 -20 16.68 -20 16 C-19.34 16 -18.68 16 -18 16 C-18 15.34 -18 14.68 -18 14 C-16.42578125 12.4140625 -16.42578125 12.4140625 -14.3125 10.625 C-13.5803125 10.00367188 -12.848125 9.38234375 -12.09375 8.7421875 C-11.4028125 8.16726562 -10.711875 7.59234375 -10 7 C-9.113125 6.2575 -8.22625 5.515 -7.3125 4.75 C-4.94458384 2.95806345 -2.64356588 1.3575068 0 0 Z " fill="#9F82AC" transform="translate(326,148)"/>
<path d="M0 0 C0 0.66 0 1.32 0 2 C-0.66 2 -1.32 2 -2 2 C-2 2.66 -2 3.32 -2 4 C-3.3984375 5.375 -3.3984375 5.375 -5.375 7 C-10.54143497 11.37943323 -15.25777524 16.17031617 -20 21 C-20.33 19.68 -20.66 18.36 -21 17 C-20.34 17 -19.68 17 -19 17 C-18.67 15.68 -18.34 14.36 -18 13 C-17.34 13 -16.68 13 -16 13 C-16.33 12.34 -16.66 11.68 -17 11 C-17.99 11.495 -17.99 11.495 -19 12 C-19 11.34 -19 10.68 -19 10 C-19.66 9.67 -20.32 9.34 -21 9 C-18.25727599 7.4864028 -15.50474367 5.99159291 -12.75 4.5 C-11.97269531 4.07074219 -11.19539063 3.64148438 -10.39453125 3.19921875 C-9.64042969 2.79316406 -8.88632812 2.38710937 -8.109375 1.96875 C-7.41811523 1.59169922 -6.72685547 1.21464844 -6.01464844 0.82617188 C-4 0 -4 0 0 0 Z " fill="#AC86B9" transform="translate(383,113)"/>
<path d="M0 0 C4.21654356 1.48635116 7.62478605 3.61249159 11.3125 6.125 C12.38113281 6.84945313 13.44976562 7.57390625 14.55078125 8.3203125 C15.76314453 9.15175781 15.76314453 9.15175781 17 10 C14 12 14 12 11 13 C7.9890638 10.9927092 7.36983503 10.16115776 6 7 C4.99782936 10.58327753 4.99782936 10.58327753 6 14 C5.67 14.66 5.34 15.32 5 16 C2.43926454 15.63186044 1.2984551 15.36392816 -0.37109375 13.328125 C-1.45512344 11.21565688 -2.38867137 9.29790196 -3 7 C-1.75 4.125 -1.75 4.125 0 2 C0 1.34 0 0.68 0 0 Z " fill="#694E77" transform="translate(188,290)"/>
<path d="M0 0 C0.33 0 0.66 0 1 0 C1 9.9 1 19.8 1 30 C-0.32 30 -1.64 30 -3 30 C-3 20.76 -3 11.52 -3 2 C-3.66 1.67 -4.32 1.34 -5 1 C-4.01 1 -3.02 1 -2 1 C-1.67 1.66 -1.34 2.32 -1 3 C-0.67 2.01 -0.34 1.02 0 0 Z " fill="#60476A" transform="translate(251,357)"/>
<path d="M0 0 C2.00720923 0.28674418 4.0085944 0.61866701 6 1 C5.01 1.495 5.01 1.495 4 2 C4 5.96 4 9.92 4 14 C10.93 14 17.86 14 25 14 C25 14.33 25 14.66 25 15 C14.605 15.495 14.605 15.495 4 16 C4 16.99 4 17.98 4 19 C0.125 18.125 0.125 18.125 -1 17 C-1.09981214 14.3226862 -1.13879875 11.67695825 -1.125 9 C-1.12886719 8.24976563 -1.13273437 7.49953125 -1.13671875 6.7265625 C-1.12661053 1.12661053 -1.12661053 1.12661053 0 0 Z " fill="#A892B1" transform="translate(301,351)"/>
<path d="M0 0 C0.99 0.495 0.99 0.495 2 1 C2 1.66 2 2.32 2 3 C2.33 2.34 2.66 1.68 3 1 C11.25 1 19.5 1 28 1 C28 2.32 28 3.64 28 5 C18.76 5 9.52 5 0 5 C0 3.35 0 1.7 0 0 Z " fill="#37223F" transform="translate(370,381)"/>
<path d="M0 0 C0.33 0 0.66 0 1 0 C1 10.23 1 20.46 1 31 C-0.32 31 -1.64 31 -3 31 C-3 21.1 -3 11.2 -3 1 C-2.34 2.32 -1.68 3.64 -1 5 C-0.67 3.35 -0.34 1.7 0 0 Z " fill="#543D5C" transform="translate(406,356)"/>
<path d="M0 0 C9.57 0 19.14 0 29 0 C29.33 1.32 29.66 2.64 30 4 C29 5 29 5 26.68334961 5.11352539 C25.68311768 5.10828857 24.68288574 5.10305176 23.65234375 5.09765625 C22.57275391 5.09443359 21.49316406 5.09121094 20.38085938 5.08789062 C19.24455078 5.07951172 18.10824219 5.07113281 16.9375 5.0625 C15.79732422 5.05798828 14.65714844 5.05347656 13.48242188 5.04882812 C10.65489649 5.03699747 7.8274736 5.0205141 5 5 C5.33 4.01 5.66 3.02 6 2 C3.03 1.505 3.03 1.505 0 1 C0 0.67 0 0.34 0 0 Z " fill="#836D8D" transform="translate(369,350)"/>
<path d="M0 0 C0.33 0.99 0.66 1.98 1 3 C-2.63 3.33 -6.26 3.66 -10 4 C-10.33 4.99 -10.66 5.98 -11 7 C-7.04 7 -3.08 7 1 7 C1 7.33 1 7.66 1 8 C-7.25 8 -15.5 8 -24 8 C-24.33 6.35 -24.66 4.7 -25 3 C-24 2 -24 2 -21.68334961 1.88647461 C-20.68311768 1.89171143 -19.68288574 1.89694824 -18.65234375 1.90234375 C-17.57275391 1.90556641 -16.49316406 1.90878906 -15.38085938 1.91210938 C-13.67639648 1.92467773 -13.67639648 1.92467773 -11.9375 1.9375 C-10.22723633 1.94426758 -10.22723633 1.94426758 -8.48242188 1.95117188 C-5.65489649 1.96300253 -2.8274736 1.9794859 0 2 C0 1.34 0 0.68 0 0 Z " fill="#87778D" transform="translate(162,379)"/>
<path d="M0 0 C5.38025952 0.39444718 7.66633308 2.03268742 11.375 5.875 C12.24898437 6.75929688 13.12296875 7.64359375 14.0234375 8.5546875 C16 11 16 11 16 14 C12.3137166 14.35742545 10.54937054 14.39094741 7.48046875 12.20703125 C6.72378906 11.41683594 5.96710938 10.62664062 5.1875 9.8125 C4.41792969 9.03519531 3.64835938 8.25789063 2.85546875 7.45703125 C0.90085466 4.8687107 0.34549087 3.18871079 0 0 Z " fill="#5F4968" transform="translate(191,373)"/>
<path d="M0 0 C2.27804239 2.87928525 4.04034684 5.7830329 5.6875 9.0625 C6.12449219 9.91972656 6.56148437 10.77695312 7.01171875 11.66015625 C8 14 8 14 8 17 C8.66 17 9.32 17 10 17 C9.67 17.66 9.34 18.32 9 19 C8.34 19 7.68 19 7 19 C6.34 19.99 5.68 20.98 5 22 C3.96958487 20.04669132 2.9509107 18.08718472 1.9375 16.125 C1.36902344 15.03445313 0.80054688 13.94390625 0.21484375 12.8203125 C-0.18605469 11.88960938 -0.58695313 10.95890625 -1 10 C-0.67 9.34 -0.34 8.68 0 8 C0.66 8.33 1.32 8.66 2 9 C2.33 8.34 2.66 7.68 3 7 C1.824375 6.7834375 1.824375 6.7834375 0.625 6.5625 C-2 6 -2 6 -4 5 C-4 4.01 -4 3.02 -4 2 C-2.68 2 -1.36 2 0 2 C0 1.34 0 0.68 0 0 Z " fill="#7E6A8E" transform="translate(216,350)"/>
<path d="M0 0 C0.33 0 0.66 0 1 0 C1.33 2.31 1.66 4.62 2 7 C2.33 7 2.66 7 3 7 C3 13.93 3 20.86 3 28 C1.68 28 0.36 28 -1 28 C-1.02912348 24.27084983 -1.04684037 20.5417291 -1.0625 16.8125 C-1.07087891 15.75740234 -1.07925781 14.70230469 -1.08789062 13.61523438 C-1.09111328 12.59365234 -1.09433594 11.57207031 -1.09765625 10.51953125 C-1.10289307 9.58214111 -1.10812988 8.64475098 -1.11352539 7.67895508 C-1.00082657 5.01950523 -0.59376649 2.59079427 0 0 Z " fill="#5E4769" transform="translate(174,358)"/>
<path d="M0 0 C3.93094698 0.89850217 5.61136788 2.48281857 7.75 5.75 C9.71724887 9.12947455 10.70415669 12.05542249 11 16 C9.35 16 7.7 16 6 16 C4.98696238 14.27843904 3.99005152 12.54738194 3 10.8125 C2.443125 9.84957031 1.88625 8.88664062 1.3125 7.89453125 C-0.02216758 4.95111257 -0.27915461 3.18119943 0 0 Z " fill="#5E4969" transform="translate(286,371)"/>
<path d="M0 0 C0.8971875 0.309375 0.8971875 0.309375 1.8125 0.625 C1.1525 0.625 0.4925 0.625 -0.1875 0.625 C-0.45175781 1.21796875 -0.71601563 1.8109375 -0.98828125 2.421875 C-2.23120425 4.70529054 -3.49151646 6.09926723 -5.375 7.875 C-8.63836774 11.02958882 -11.59751087 14.35054996 -14.51171875 17.828125 C-16.25907236 19.70174426 -18.0980862 21.15011967 -20.1875 22.625 C-20.8475 22.295 -21.5075 21.965 -22.1875 21.625 C-22.1875 20.965 -22.1875 20.305 -22.1875 19.625 C-20.2199413 17.76500715 -18.13194402 16.09109802 -16.03515625 14.37890625 C-13.93951831 12.66494919 -13.93951831 12.66494919 -13.1875 9.625 C-8.73035714 5.625 -8.73035714 5.625 -6.1875 5.625 C-6.084375 5.00625 -5.98125 4.3875 -5.875 3.75 C-4.85895141 0.60948619 -3.30129273 -0.5659359 0 0 Z " fill="#A382B1" transform="translate(351.1875,143.375)"/>
<path d="M0 0 C0.99 0.33 1.98 0.66 3 1 C3 2.65 3 4.3 3 6 C2.34 6 1.68 6 1 6 C0.8453125 7.0828125 0.8453125 7.0828125 0.6875 8.1875 C-0.08741809 11.35761946 -0.95730482 13.44663103 -3 16 C-5.6875 16.3125 -5.6875 16.3125 -8 16 C-7.41974158 12.31633699 -6.41183904 9.54472757 -4.5625 6.3125 C-4.13066406 5.54550781 -3.69882812 4.77851563 -3.25390625 3.98828125 C-2 2 -2 2 0 0 Z " fill="#65516E" transform="translate(264,371)"/>
<path d="M0 0 C1.65322266 0.01740234 1.65322266 0.01740234 3.33984375 0.03515625 C4.99693359 0.04869141 4.99693359 0.04869141 6.6875 0.0625 C7.54214844 0.07410156 8.39679688 0.08570313 9.27734375 0.09765625 C9.93734375 2.07765625 10.59734375 4.05765625 11.27734375 6.09765625 C5.99734375 6.09765625 0.71734375 6.09765625 -4.72265625 6.09765625 C-3.5284366 0.12655798 -3.5284366 0.12655798 0 0 Z " fill="#786180" transform="translate(273.72265625,372.90234375)"/>
<path d="M0 0 C3.96 0 7.92 0 12 0 C12.66 1.98 13.32 3.96 14 6 C8.72 6 3.44 6 -2 6 C-2 4.68 -2 3.36 -2 2 C-1.34 2 -0.68 2 0 2 C0 1.34 0 0.68 0 0 Z " fill="#8C7993" transform="translate(108,373)"/>
<path d="M0 0 C0.33 0 0.66 0 1 0 C1.05418326 2.08304538 1.09287551 4.16649768 1.125 6.25 C1.14820313 7.41015625 1.17140625 8.5703125 1.1953125 9.765625 C1.00074934 12.98759101 0.41242527 14.21795022 -1 17 C-1.28878735 19.40837755 -1.49045026 21.82810468 -1.625 24.25 C-1.74875 26.4775 -1.8725 28.705 -2 31 C7.24 31 16.48 31 26 31 C26 31.33 26 31.66 26 32 C16.43 32 6.86 32 -3 32 C-3.19163763 4.78745645 -3.19163763 4.78745645 0 0 Z " fill="#A98BAF" transform="translate(372,355)"/>
<path d="M0 0 C1.98 0 3.96 0 6 0 C6.99 2.31 7.98 4.62 9 7 C7.3603125 7.37125 7.3603125 7.37125 5.6875 7.75 C1.94091591 9.02002851 0.89404734 9.65756352 -1 13 C-1 11.68 -1 10.36 -1 9 C-2.32 9.33 -3.64 9.66 -5 10 C-4.34 8.02 -3.68 6.04 -3 4 C-2.34 4 -1.68 4 -1 4 C-0.67 2.68 -0.34 1.36 0 0 Z " fill="#8F7999" transform="translate(111,350)"/>
<path d="M0 0 C2.4375 0.1875 2.4375 0.1875 5 1 C6.3125 3.0625 6.3125 3.0625 7 5 C7.66 5 8.32 5 9 5 C13 9.35294118 13 9.35294118 13 13 C11.02 13 9.04 13 7 13 C7 12.34 7 11.68 7 11 C6.34 11 5.68 11 5 11 C1.88002198 7.69649386 1 6.67590167 1 2 C0.34 1.67 -0.32 1.34 -1 1 C-0.67 0.67 -0.34 0.34 0 0 Z " fill="#564260" transform="translate(424,374)"/>
<path d="M0 0 C-0.8125 1.9375 -0.8125 1.9375 -2 4 C-2.99 4.33 -3.98 4.66 -5 5 C-5 5.66 -5 6.32 -5 7 C-10.47619048 12 -10.47619048 12 -13 12 C-13.33 12.66 -13.66 13.32 -14 14 C-13.67 12.02 -13.34 10.04 -13 8 C-13.66 7.67 -14.32 7.34 -15 7 C-7.1070615 -1.03644647 -7.1070615 -1.03644647 0 0 Z " fill="#8E7596" transform="translate(207,350)"/>
<path d="M0 0 C4.62 0 9.24 0 14 0 C14.33 1.65 14.66 3.3 15 5 C9.72 5 4.44 5 -1 5 C-0.67 3.35 -0.34 1.7 0 0 Z " fill="#908099" transform="translate(377,365)"/>
<path d="M0 0 C6.27 0 12.54 0 19 0 C19.33 0.99 19.66 1.98 20 3 C13.27777713 5.657623 7.07844318 4.78767638 0 4 C0 2.68 0 1.36 0 0 Z " fill="#594064" transform="translate(411,368)"/>
<path d="M0 0 C2.375 2 2.375 2 4 4 C3.67 4.66 3.34 5.32 3 6 C2.67 5.505 2.34 5.01 2 4.5 C-1.17572747 2.11820439 -4.10246066 2.80831774 -8 3 C-7.72965366 5.43717258 -7.72965366 5.43717258 -7 8 C-6.01 8.66 -5.02 9.32 -4 10 C-4.33 10.66 -4.66 11.32 -5 12 C-4.34 12.33 -3.68 12.66 -3 13 C-3.99 13.495 -3.99 13.495 -5 14 C-4.690625 15.1446875 -4.690625 15.1446875 -4.375 16.3125 C-4 19 -4 19 -6 22 C-6.7032653 19.7966366 -7.38698402 17.5870286 -8.0625 15.375 C-8.44535156 14.14523438 -8.82820313 12.91546875 -9.22265625 11.6484375 C-10.01691867 7.92059279 -10.10224534 5.63155227 -9 2 C-5.50875983 -0.32749345 -4.10777749 -0.50299316 0 0 Z " fill="#A689B4" transform="translate(345,178)"/>
<path d="M0 0 C0.33 0 0.66 0 1 0 C1 2.97 1 5.94 1 9 C1.66 9 2.32 9 3 9 C3.66 6.03 4.32 3.06 5 0 C5.33 0 5.66 0 6 0 C6.55353075 10.55808656 6.55353075 10.55808656 3 15 C2.62383545 14.34805664 2.2476709 13.69611328 1.86010742 13.02441406 C0.14997838 10.74959225 0.14997838 10.74959225 -2.63549805 10.54589844 C-3.66715088 10.5668457 -4.69880371 10.58779297 -5.76171875 10.609375 C-7.43911133 10.62871094 -7.43911133 10.62871094 -9.15039062 10.6484375 C-10.31763672 10.68195313 -11.48488281 10.71546875 -12.6875 10.75 C-14.45577148 10.77707031 -14.45577148 10.77707031 -16.25976562 10.8046875 C-19.17398926 10.85188141 -22.08659031 10.91770923 -25 11 C-25 10.67 -25 10.34 -25 10 C-17.08 9.67 -9.16 9.34 -1 9 C-0.67 6.03 -0.34 3.06 0 0 Z " fill="#917F98" transform="translate(325,371)"/>
<path d="M0 0 C0.33 0 0.66 0 1 0 C1 4.29 1 8.58 1 13 C9.58 13 18.16 13 27 13 C27 14.65 27 16.3 27 18 C26.67 16.68 26.34 15.36 26 14 C17.75 14 9.5 14 1 14 C0.67 14.99 0.34 15.98 0 17 C-1.96661413 13.70670174 -2.27055005 11.18703427 -2.25 7.375 C-2.25515625 6.41335938 -2.2603125 5.45171875 -2.265625 4.4609375 C-2 2 -2 2 0 0 Z " fill="#786180" transform="translate(372,368)"/>
<path d="M0 0 C2.1875 -0.5 2.1875 -0.5 5 0 C7.3981167 2.83885166 10 6.18795831 10 10 C9.360625 10.12375 8.72125 10.2475 8.0625 10.375 C7.381875 10.58125 6.70125 10.7875 6 11 C5.67 11.66 5.34 12.32 5 13 C4.15930585 11.39967863 3.32768495 9.79458829 2.5 8.1875 C1.80390625 6.84751953 1.80390625 6.84751953 1.09375 5.48046875 C0 3 0 3 0 0 Z " fill="#7A6487" transform="translate(115,357)"/>
<path d="M0 0 C0.99 0 1.98 0 3 0 C3.34833144 4.87664009 2.41685712 7.77050005 0 12 C-0.99 11.34 -1.98 10.68 -3 10 C-3.99 10 -4.98 10 -6 10 C-5.38003922 8.70590711 -4.75383647 7.41480327 -4.125 6.125 C-3.77695313 5.40570313 -3.42890625 4.68640625 -3.0703125 3.9453125 C-2 2 -2 2 0 0 Z " fill="#775F7F" transform="translate(107,359)"/>
<path d="M0 0 C3.60409919 -0.05800828 7.20807851 -0.09359869 10.8125 -0.125 C12.34874023 -0.15013672 12.34874023 -0.15013672 13.91601562 -0.17578125 C14.89892578 -0.18222656 15.88183594 -0.18867188 16.89453125 -0.1953125 C17.80050049 -0.20578613 18.70646973 -0.21625977 19.63989258 -0.22705078 C22 0 22 0 25 2 C24.67 3.98 24.34 5.96 24 8 C23.67 7.34 23.34 6.68 23 6 C22.34 6 21.68 6 21 6 C21 7.98 21 9.96 21 12 C20.67 12 20.34 12 20 12 C18.875 4.375 18.875 4.375 20 1 C13.4 1 6.8 1 0 1 C0 0.67 0 0.34 0 0 Z " fill="#AE94B6" transform="translate(142,365)"/>
<path d="M0 0 C5.94 0 11.88 0 18 0 C18.33 1.32 18.66 2.64 19 4 C15.04 4 11.08 4 7 4 C7 3.34 7 2.68 7 2 C4.69 1.67 2.38 1.34 0 1 C0 0.67 0 0.34 0 0 Z " fill="#331D3D" transform="translate(144,382)"/>
<path d="M0 0 C1.32 0 2.64 0 4 0 C4 5.61 4 11.22 4 17 C3.01 17 2.02 17 1 17 C1.01160156 15.94039063 1.02320313 14.88078125 1.03515625 13.7890625 C1.04453476 12.40104342 1.05363489 11.01302245 1.0625 9.625 C1.07087891 8.92632812 1.07925781 8.22765625 1.08789062 7.5078125 C1.1835442 3.62704624 1.1835442 3.62704624 0 0 Z " fill="#614A6E" transform="translate(347,356)"/>
<path d="M0 0 C0.66 0.33 1.32 0.66 2 1 C1.01 2.485 1.01 2.485 0 4 C0.33 4.66 0.66 5.32 1 6 C-0.26538369 6.84158536 -1.53753779 7.67299748 -2.8125 8.5 C-3.52019531 8.9640625 -4.22789062 9.428125 -4.95703125 9.90625 C-7 11 -7 11 -10 11 C-9.69593558 7.75480334 -9.43719323 6.38099448 -6.93359375 4.19921875 C-6.10988281 3.70035156 -5.28617187 3.20148438 -4.4375 2.6875 C-3.61121094 2.17574219 -2.78492188 1.66398438 -1.93359375 1.13671875 C-1.29550781 0.76160156 -0.65742188 0.38648438 0 0 Z " fill="#9975AA" transform="translate(326,148)"/>
<path d="M0 0 C3 3 3 3 3.29296875 6.57421875 C3.27309338 7.94561913 3.23741111 9.31686405 3.1875 10.6875 C3.17396484 11.38939453 3.16042969 12.09128906 3.14648438 12.81445312 C3.11120182 14.54329829 3.05739583 16.27174765 3 18 C2.01 18 1.02 18 0 18 C0 12.06 0 6.12 0 0 Z " fill="#3F274D" transform="translate(211,368)"/>
<path d="M0 0 C3.01657791 0.14030595 5.23841273 0.29351465 7.51171875 2.40234375 C8.73256066 3.88904235 9.87246522 5.44134898 11 7 C9.68 6.67 8.36 6.34 7 6 C7 6.66 7 7.32 7 8 C4.13275314 7.42655063 3.1385485 7.1385485 1 5 C0.375 2.375 0.375 2.375 0 0 Z " fill="#614C69" transform="translate(191,373)"/>
<path d="M0 0 C2.64465038 3.1254959 3.84414715 6.08788267 5 10 C4.34 10.66 3.68 11.32 3 12 C2.01 12 1.02 12 0 12 C-0.33 10.68 -0.66 9.36 -1 8 C-0.01 8.33 0.98 8.66 2 9 C2.33 8.34 2.66 7.68 3 7 C1.824375 6.7834375 1.824375 6.7834375 0.625 6.5625 C-2 6 -2 6 -4 5 C-4 4.01 -4 3.02 -4 2 C-2.68 2 -1.36 2 0 2 C0 1.34 0 0.68 0 0 Z " fill="#947F9D" transform="translate(216,350)"/>
<path d="M0 0 C9.57 0 19.14 0 29 0 C29.33 1.32 29.66 2.64 30 4 C28.68 4.33 27.36 4.66 26 5 C25.67 4.01 25.34 3.02 25 2 C16.75 1.67 8.5 1.34 0 1 C0 0.67 0 0.34 0 0 Z " fill="#917F98" transform="translate(369,350)"/>
<path d="M0 0 C0.99 0.33 1.98 0.66 3 1 C2.5205537 5.21912747 1.83374881 7.79663178 -1 11 C-1 10.01 -1 9.02 -1 8 C-1.99 7.67 -2.98 7.34 -4 7 C-3.39816251 4.97954558 -2.72693904 2.97888961 -2 1 C-1.34 0.67 -0.68 0.34 0 0 Z " fill="#71577C" transform="translate(238,368)"/>
<path d="M0 0 C0.33 0 0.66 0 1 0 C1 5.61 1 11.22 1 17 C0.01 17 -0.98 17 -2 17 C-2 12.71 -2 8.42 -2 4 C-1.34 4 -0.68 4 0 4 C0 2.68 0 1.36 0 0 Z " fill="#41264C" transform="translate(79,369)"/>
<path d="M0 0 C2.99329122 1.23253168 4.26881368 3.28959763 6.125 5.875 C4.805 5.875 3.485 5.875 2.125 5.875 C1.795 6.865 1.465 7.855 1.125 8.875 C-1.375 6.5625 -1.375 6.5625 -3.875 3.875 C-3.875 2.885 -3.875 1.895 -3.875 0.875 C-1.875 -0.125 -1.875 -0.125 0 0 Z " fill="#715C7D" transform="translate(189.875,368.125)"/>
<path d="M0 0 C3.72 1.44 3.72 1.44 4.875 3.75 C5.0455723 6.82030146 4.09788947 9.15840374 3 12 C-0.14340842 8.58325171 -0.65504062 5.57071175 -1 1 C-0.67 0.67 -0.34 0.34 0 0 Z " fill="#6A5575" transform="translate(223,368)"/>
<path d="M0 0 C0.66 0.33 1.32 0.66 2 1 C2 5.95 2 10.9 2 16 C1.01 15.67 0.02 15.34 -1 15 C-1.02703381 13.06257659 -1.04641125 11.12504521 -1.0625 9.1875 C-1.07410156 8.10855469 -1.08570313 7.02960938 -1.09765625 5.91796875 C-1 3 -1 3 0 0 Z " fill="#6D5679" transform="translate(433,353)"/>
<path d="M0 0 C0.33 0.66 0.66 1.32 1 2 C1.66 2 2.32 2 3 2 C3 6.29 3 10.58 3 15 C2.01 15 1.02 15 0 15 C0 10.05 0 5.1 0 0 Z " fill="#40264A" transform="translate(174,371)"/>
<path d="M0 0 C7.92 0 15.84 0 24 0 C24 1.32 24 2.64 24 4 C21.69 3.67 19.38 3.34 17 3 C17 2.67 17 2.34 17 2 C11.39 1.67 5.78 1.34 0 1 C0 0.67 0 0.34 0 0 Z " fill="#7D6786" transform="translate(143,351)"/>
<path d="M0 0 C2.83374881 3.20336822 3.5205537 5.78087253 4 10 C2.35 10 0.7 10 -1 10 C-2.15837626 5.94568308 -1.83691257 3.78187881 0 0 Z " fill="#715F77" transform="translate(293,377)"/>
<path d="M0 0 C3.3 1.98 6.6 3.96 10 6 C7 8 7 8 4 9 C3.01 8.34 2.02 7.68 1 7 C0.3125 3.375 0.3125 3.375 0 0 Z " fill="#7C6587" transform="translate(195,294)"/>
<path d="M0 0 C1.32 0.66 2.64 1.32 4 2 C3.74438677 4.3431213 3.40729228 6.67843403 3 9 C2.01 9.495 2.01 9.495 1 10 C0.67 9.34 0.34 8.68 0 8 C-0.99 8 -1.98 8 -3 8 C-2.690625 7.236875 -2.38125 6.47375 -2.0625 5.6875 C-1.32106407 3.81210323 -0.63771783 1.91315348 0 0 Z " fill="#786080" transform="translate(266,364)"/>
<path d="M0 0 C4.68334783 5.29421929 4.1410905 11.68876177 4.0625 18.375 C4.05798828 19.11105469 4.05347656 19.84710938 4.04882812 20.60546875 C4.03715142 22.40368158 4.01922011 24.20185197 4 26 C3.67 26 3.34 26 3 26 C2.92652344 24.55367188 2.92652344 24.55367188 2.8515625 23.078125 C2.77679688 21.81484375 2.70203125 20.5515625 2.625 19.25 C2.55539063 17.99703125 2.48578125 16.7440625 2.4140625 15.453125 C2.03582593 12.29877473 1.45242891 10.71744763 0 8 C-0.24636612 5.29982731 -0.09065666 2.71969994 0 0 Z " fill="#5E4668" transform="translate(211,360)"/>
<path d="M0 0 C0.66 0 1.32 0 2 0 C2 0.66 2 1.32 2 2 C2.99 1.67 3.98 1.34 5 1 C4.47731534 3.76276177 3.89130413 6.3260876 3 9 C2.34 9 1.68 9 1 9 C1 10.65 1 12.3 1 14 C0.67 14 0.34 14 0 14 C0 9.38 0 4.76 0 0 Z " fill="#806A8D" transform="translate(137,353)"/>
<path d="M0 0 C1.98 0.99 1.98 0.99 4 2 C4 4.97 4 7.94 4 11 C3.01 11.33 2.02 11.66 1 12 C0 11 0 11 -0.09765625 8.49609375 C-0.08605469 7.48675781 -0.07445312 6.47742188 -0.0625 5.4375 C-0.05347656 4.42558594 -0.04445313 3.41367187 -0.03515625 2.37109375 C-0.02355469 1.58863281 -0.01195312 0.80617188 0 0 Z " fill="#695075" transform="translate(300,354)"/>
<path d="M0 0 C-2.10251861 0.67184618 -4.20707763 1.33730968 -6.3125 2 C-8.07013672 2.556875 -8.07013672 2.556875 -9.86328125 3.125 C-13 4 -13 4 -16 4 C-15.67 3.01 -15.34 2.02 -15 1 C-12.63671875 -0.01953125 -12.63671875 -0.01953125 -9.6875 -0.8125 C-8.72199219 -1.08707031 -7.75648438 -1.36164063 -6.76171875 -1.64453125 C-3.70589062 -2.03785566 -2.537526 -1.65752886 0 0 Z " fill="#B193BA" transform="translate(228,130)"/>
<path d="M0 0 C0 0.66 0 1.32 0 2 C-0.66 2 -1.32 2 -2 2 C-2 2.66 -2 3.32 -2 4 C-4.5 5.625 -4.5 5.625 -7 7 C-7 6.34 -7 5.68 -7 5 C-8.65 5 -10.3 5 -12 5 C-7.86687528 1.75254486 -5.36067372 0 0 0 Z " fill="#AC8BB8" transform="translate(383,113)"/>
<path d="M0 0 C3.96 0 7.92 0 12 0 C11.67 0.66 11.34 1.32 11 2 C8.36 2 5.72 2 3 2 C2.67 4.31 2.34 6.62 2 9 C1.67 9 1.34 9 1 9 C0.67 6.03 0.34 3.06 0 0 Z " fill="#7E668A" transform="translate(404,352)"/>
<path d="M0 0 C4.6875 3.61328125 4.6875 3.61328125 6 5 C6 8 6 8 5 11 C2.06205603 9.23723362 1.06192878 8.14450048 -0.3125 4.9375 C-1 2 -1 2 0 0 Z " fill="#6B507A" transform="translate(232,257)"/>
<path d="M0 0 C1.65 0.33 3.3 0.66 5 1 C4.04270084 2.12588014 3.08412105 3.2506715 2.125 4.375 C1.59132813 5.00148437 1.05765625 5.62796875 0.5078125 6.2734375 C-0.61432007 7.55836651 -1.79371975 8.79371975 -3 10 C-3 9.34 -3 8.68 -3 8 C-3.66 7.67 -4.32 7.34 -5 7 C-4.0409375 6.1028125 -4.0409375 6.1028125 -3.0625 5.1875 C-0.79689611 3.09189663 -0.79689611 3.09189663 0 0 Z " fill="#9A7DA5" transform="translate(320,173)"/>
<path d="M0 0 C0.99 0 1.98 0 3 0 C3 4.62 3 9.24 3 14 C1.68 13.67 0.36 13.34 -1 13 C-0.34 12.34 0.32 11.68 1 11 C1.64767793 8.42938689 1.64767793 8.42938689 2 6 C1.34 6 0.68 6 0 6 C0 4.02 0 2.04 0 0 Z " fill="#604A67" transform="translate(348,373)"/>
<path d="M0 0 C0.66 0 1.32 0 2 0 C2.66 1.98 3.32 3.96 4 6 C4.66 6 5.32 6 6 6 C6 8.64 6 11.28 6 14 C3.52813545 11.03653214 2.33751639 8.45958311 1.3125 4.75 C1.06113281 3.85796875 0.80976563 2.9659375 0.55078125 2.046875 C0.36902344 1.37140625 0.18726563 0.6959375 0 0 Z " fill="#8F759A" transform="translate(150,254)"/>
<path d="M0 0 C-1 3 -1 3 -3.25 4.1875 C-5.99791147 4.99938294 -8.15447889 5.16260121 -11 5 C-11.33 5.66 -11.66 6.32 -12 7 C-12.66 6.34 -13.32 5.68 -14 5 C-12.421924 4.15675328 -10.8372958 3.32576082 -9.25 2.5 C-8.36828125 2.0359375 -7.4865625 1.571875 -6.578125 1.09375 C-4 0 -4 0 0 0 Z " fill="#A987B7" transform="translate(213,121)"/>
<path d="M0 0 C2 1 2 1 3 3 C2.01 3.495 2.01 3.495 1 4 C1 5.32 1 6.64 1 8 C0.67 7.34 0.34 6.68 0 6 C-0.763125 6.165 -1.52625 6.33 -2.3125 6.5 C-5 7 -5 7 -8 7 C-5.36 4.69 -2.72 2.38 0 0 Z " fill="#B094BE" transform="translate(330,143)"/>
<path d="M0 0 C0.66 0.33 1.32 0.66 2 1 C1.51219512 6.48780488 1.51219512 6.48780488 -0.875 8.875 C-3 10 -3 10 -6 10 C-6 9.34 -6 8.68 -6 8 C-5.38125 7.566875 -4.7625 7.13375 -4.125 6.6875 C-1.60686633 4.68780562 -0.97814895 3.01595927 0 0 Z " fill="#AA88B3" transform="translate(309,134)"/>
<path d="M0 0 C0 0.66 0 1.32 0 2 C-1.32 2.33 -2.64 2.66 -4 3 C-4 3.66 -4 4.32 -4 5 C-5.65 4.67 -7.3 4.34 -9 4 C-9 3.01 -9 2.02 -9 1 C-6.04335481 -0.4783226 -3.25770263 -0.06032783 0 0 Z " fill="#A37AB0" transform="translate(376,118)"/>
<path d="M0 0 C0.33 0 0.66 0 1 0 C1 3.96 1 7.92 1 12 C1.66 12 2.32 12 3 12 C3 13.98 3 15.96 3 18 C2.01 18 1.02 18 0 18 C0 12.06 0 6.12 0 0 Z " fill="#392141" transform="translate(248,368)"/>
<path d="M0 0 C2.00720923 0.28674418 4.0085944 0.61866701 6 1 C5.01 1.495 5.01 1.495 4 2 C4 5.96 4 9.92 4 14 C3.67 14 3.34 14 3 14 C3 11.03 3 8.06 3 5 C2.01 5.33 1.02 5.66 0 6 C-0.38218767 4.34385343 -0.71395102 2.67542976 -1 1 C-0.67 0.67 -0.34 0.34 0 0 Z " fill="#9A86A5" transform="translate(301,351)"/>
<path d="M0 0 C1.98 0 3.96 0 6 0 C7.06775224 1.96466413 8.06553465 3.96855359 9 6 C8.67 6.66 8.34 7.32 8 8 C7.01 7.67 6.02 7.34 5 7 C4.67 8.32 4.34 9.64 4 11 C3.34 9.35 2.68 7.7 2 6 C2.99 6 3.98 6 5 6 C5 4.35 5 2.7 5 1 C3.35 1 1.7 1 0 1 C0 0.67 0 0.34 0 0 Z " fill="#9885A2" transform="translate(274,350)"/>
<path d="M0 0 C-0.639375 0.28875 -1.27875 0.5775 -1.9375 0.875 C-4.15206079 1.82823451 -4.15206079 1.82823451 -5 4 C-5.33 4 -5.66 4 -6 4 C-6.66 5.32 -7.32 6.64 -8 8 C-8 7.34 -8 6.68 -8 6 C-8.66 6 -9.32 6 -10 6 C-10.66 4.68 -11.32 3.36 -12 2 C-7.8794254 0.00214565 -4.54805635 -0.17835515 0 0 Z " fill="#83718C" transform="translate(432,371)"/>
<path d="M0 0 C1.65 0 3.3 0 5 0 C5 1.65 5 3.3 5 5 C3.02 5.33 1.04 5.66 -1 6 C-0.67 4.02 -0.34 2.04 0 0 Z " fill="#7A5E84" transform="translate(274,351)"/>
<path d="M0 0 C0.66 0.66 1.32 1.32 2 2 C1 3 1 3 -1.94140625 3.09765625 C-3.73384766 3.08025391 -3.73384766 3.08025391 -5.5625 3.0625 C-7.35880859 3.04896484 -7.35880859 3.04896484 -9.19140625 3.03515625 C-10.11824219 3.02355469 -11.04507813 3.01195312 -12 3 C-12.33 2.34 -12.66 1.68 -13 1 C-10.87631556 0.77865824 -8.75095976 0.57329993 -6.625 0.375 C-5.44164062 0.25898438 -4.25828125 0.14296875 -3.0390625 0.0234375 C-2.03617188 0.01570313 -1.03328125 0.00796875 0 0 Z " fill="#6F5B78" transform="translate(256,323)"/>
<path d="M0 0 C0.66 0.33 1.32 0.66 2 1 C1.25 3.9375 1.25 3.9375 0 7 C-2.125 7.875 -2.125 7.875 -4 8 C-4.66 6.68 -5.32 5.36 -6 4 C-4.02 2.68 -2.04 1.36 0 0 Z " fill="#82678E" transform="translate(302,295)"/>
<path d="M0 0 C2.4375 0.25 2.4375 0.25 5 1 C5.66 1.99 6.32 2.98 7 4 C6.01 4.495 6.01 4.495 5 5 C4.01 6.485 4.01 6.485 3 8 C2.34 7.34 1.68 6.68 1 6 C1 4.68 1 3.36 1 2 C0.34 1.67 -0.32 1.34 -1 1 C-0.67 0.67 -0.34 0.34 0 0 Z " fill="#5D4664" transform="translate(424,374)"/>
<path d="M0 0 C0.66 0 1.32 0 2 0 C0.52307692 6.64615385 0.52307692 6.64615385 -2.125 8.4375 C-2.74375 8.623125 -3.3625 8.80875 -4 9 C-4 4.32409833 -3.11997802 3.30350614 0 0 Z " fill="#6D5478" transform="translate(192,358)"/>
<path d="M0 0 C2.31 0 4.62 0 7 0 C7.33 1.32 7.66 2.64 8 4 C4.7 4 1.4 4 -2 4 C-2 3.67 -2 3.34 -2 3 C-0.35 3 1.3 3 3 3 C3 2.34 3 1.68 3 1 C2.01 0.67 1.02 0.34 0 0 Z " fill="#4A344F" transform="translate(113,374)"/>
<path d="M0 0 C2.97 0 5.94 0 9 0 C9.33 0.99 9.66 1.98 10 3 C6.7 3 3.4 3 0 3 C0 2.01 0 1.02 0 0 Z " fill="#644F6F" transform="translate(378,367)"/>
<path d="M0 0 C0.99 0.33 1.98 0.66 3 1 C3 3.31 3 5.62 3 8 C2.67 8 2.34 8 2 8 C1.67 10.31 1.34 12.62 1 15 C0.67 15 0.34 15 0 15 C0 10.05 0 5.1 0 0 Z " fill="#755F7E" transform="translate(76,357)"/>
<path d="M0 0 C1.125 3.75 1.125 3.75 0 6 C0.99 6 1.98 6 3 6 C2.34 7.32 1.68 8.64 1 10 C-0.65 9.67 -2.3 9.34 -4 9 C-3.52418802 7.68628013 -3.04424851 6.37405454 -2.5625 5.0625 C-2.29566406 4.33160156 -2.02882813 3.60070312 -1.75390625 2.84765625 C-1 1 -1 1 0 0 Z " fill="#927E9C" transform="translate(273,351)"/>
<path d="M0 0 C5.445 1.485 5.445 1.485 11 3 C10.67 3.66 10.34 4.32 10 5 C5.71 4.34 1.42 3.68 -3 3 C-2.01 2.01 -1.02 1.02 0 0 Z " fill="#A685B0" transform="translate(264,125)"/>
<path d="M0 0 C1.65 0 3.3 0 5 0 C4.67 1.65 4.34 3.3 4 5 C2.35 5 0.7 5 -1 5 C-0.67 3.35 -0.34 1.7 0 0 Z " fill="#6D5F73" transform="translate(94,382)"/>
<path d="M0 0 C2 1 2 1 3.125 4.0625 C3.41375 5.031875 3.7025 6.00125 4 7 C1.525 6.01 1.525 6.01 -1 5 C-1.33 5.99 -1.66 6.98 -2 8 C-4 5 -4 5 -4 2 C-3.34 2 -2.68 2 -2 2 C-2 2.66 -2 3.32 -2 4 C-1.34 4 -0.68 4 0 4 C0 2.68 0 1.36 0 0 Z " fill="#8C7396" transform="translate(287,366)"/>
<path d="M0 0 C0 3.58912412 -0.66436554 4.10857029 -3 6.6875 C-3.556875 7.31011719 -4.11375 7.93273437 -4.6875 8.57421875 C-5.120625 9.04472656 -5.55375 9.51523437 -6 10 C-7.32 9.67 -8.64 9.34 -10 9 C-6.7 6.03 -3.4 3.06 0 0 Z " fill="#9989A0" transform="translate(191,358)"/>
<path d="M0 0 C0.86625 0.5259375 0.86625 0.5259375 1.75 1.0625 C4.35801776 2.14917407 5.39417629 1.93065133 8 1 C8.33 1.66 8.66 2.32 9 3 C7.35 3.33 5.7 3.66 4 4 C4 4.66 4 5.32 4 6 C2.68 5.67 1.36 5.34 0 5 C0 3.35 0 1.7 0 0 Z " fill="#775B86" transform="translate(213,239)"/>
<path d="M0 0 C0.598125 0.226875 1.19625 0.45375 1.8125 0.6875 C0.5385411 2.72583424 -0.79811923 4.72602126 -2.1875 6.6875 C-2.8475 6.6875 -3.5075 6.6875 -4.1875 6.6875 C-4.875 4.875 -4.875 4.875 -5.1875 2.6875 C-3.58493056 0.24147296 -2.95482043 -0.4221172 0 0 Z " fill="#90779A" transform="translate(286.1875,219.3125)"/>
<path d="M0 0 C0.66 0 1.32 0 2 0 C1.51421457 3.12290635 1.0013988 5.99580359 0 9 C-0.66 9 -1.32 9 -2 9 C-2.125 5.625 -2.125 5.625 -2 2 C-1.34 1.34 -0.68 0.68 0 0 Z " fill="#482E54" transform="translate(328,371)"/>
<path d="M0 0 C1.32 0 2.64 0 4 0 C4 2.64 4 5.28 4 8 C2.0625 7.3125 2.0625 7.3125 0 6 C-0.8125 3.4375 -0.8125 3.4375 -1 1 C-0.67 0.67 -0.34 0.34 0 0 Z " fill="#6B507B" transform="translate(251,256)"/>
<path d="M0 0 C0.33 0 0.66 0 1 0 C1.36923077 6.52307692 1.36923077 6.52307692 -0.5 8.9375 C-0.995 9.288125 -1.49 9.63875 -2 10 C-2.66 7.69 -3.32 5.38 -4 3 C-2.68 2.67 -1.36 2.34 0 2 C0 1.34 0 0.68 0 0 Z " fill="#A280B0" transform="translate(177,156)"/>
<path d="M0 0 C0.66 0.33 1.32 0.66 2 1 C0.32482761 4.53647504 -0.49280817 5.7911563 -4.1875 7.3125 C-5.5796875 7.6528125 -5.5796875 7.6528125 -7 8 C-6.02133662 6.85373678 -5.04205413 5.70800212 -4.0625 4.5625 C-3.51722656 3.92441406 -2.97195312 3.28632813 -2.41015625 2.62890625 C-1.63204305 1.73008851 -0.84063472 0.84063472 0 0 Z " fill="#B899C1" transform="translate(179,140)"/>
<path d="M0 0 C1.32 0.66 2.64 1.32 4 2 C4 2.99 4 3.98 4 5 C2.02 5 0.04 5 -2 5 C-1.125 1.125 -1.125 1.125 0 0 Z " fill="#74637B" transform="translate(433,382)"/>
<path d="M0 0 C0.99 0.33 1.98 0.66 3 1 C2.67 2.65 2.34 4.3 2 6 C0.35 5.67 -1.3 5.34 -3 5 C-2.625 3.0625 -2.625 3.0625 -2 1 C-1.34 0.67 -0.68 0.34 0 0 Z " fill="#57405E" transform="translate(98,377)"/>
<path d="M0 0 C0.66 0.33 1.32 0.66 2 1 C2 2.32 2 3.64 2 5 C-0.50484597 7.41847197 -1.46013806 8 -5 8 C-3.62845496 5.04590299 -2.01136276 2.55991624 0 0 Z " fill="#9781A1" transform="translate(259,214)"/>
<path d="M0 0 C1.98 0.495 1.98 0.495 4 1 C4.33 2.32 4.66 3.64 5 5 C3.02 5 1.04 5 -1 5 C-0.67 3.35 -0.34 1.7 0 0 Z " fill="#766A82" transform="translate(202,382)"/>
<path d="M0 0 C1.32 0 2.64 0 4 0 C3.67 3.3 3.34 6.6 3 10 C2.34 10 1.68 10 1 10 C1.03255208 7.98177083 1.06510417 5.96354167 1.09765625 3.9453125 C1.12649242 1.91814596 1.12649242 1.91814596 0 0 Z " fill="#826E8C" transform="translate(347,356)"/>
<path d="M0 0 C1.98 0 3.96 0 6 0 C6 0.66 6 1.32 6 2 C3.33333333 3.33333333 0.66666667 4.66666667 -2 6 C-1.49396008 3.83125748 -1.00016187 2.00032373 0 0 Z " fill="#8C7897" transform="translate(246,350)"/>
<path d="M0 0 C1.07540975 4.30163901 0.99053372 4.48729344 -1 8 C-1 8.66 -1 9.32 -1 10 C-2.65 10 -4.3 10 -6 10 C-4.02 6.7 -2.04 3.4 0 0 Z " fill="#9B7EA5" transform="translate(326,270)"/>
<path d="M0 0 C-1.52708963 3.43595166 -3.59927045 6.11912454 -6 9 C-6.33 8.01 -6.66 7.02 -7 6 C-6.01 5.67 -5.02 5.34 -4 5 C-4.33 3.68 -4.66 2.36 -5 1 C-3 0 -3 0 0 0 Z " fill="#8E7397" transform="translate(280,229)"/>
<path d="M0 0 C0.33 0 0.66 0 1 0 C1.74926071 3.66305234 2.2380014 6.42355152 1 10 C0.34 10 -0.32 10 -1 10 C-1 11.98 -1 13.96 -1 16 C-1.33 16 -1.66 16 -2 16 C-2.2396943 10.36718401 -1.38529821 5.45461169 0 0 Z " fill="#A38EB2" transform="translate(147,193)"/>
<path d="M0 0 C0.33 0 0.66 0 1 0 C0.85904936 1.6254308 0.71207913 3.25034051 0.5625 4.875 C0.48128906 5.77992188 0.40007812 6.68484375 0.31640625 7.6171875 C0 10 0 10 -1 12 C-1.66 12 -2.32 12 -3 12 C-2.68950274 10.56206608 -2.3765224 9.1246682 -2.0625 7.6875 C-1.88847656 6.88699219 -1.71445313 6.08648437 -1.53515625 5.26171875 C-1 3 -1 3 0 0 Z " fill="#977EA7" transform="translate(151,181)"/>
<path d="M0 0 C2.75 -0.25 2.75 -0.25 6 0 C8.375 2 8.375 2 10 4 C9.67 4.66 9.34 5.32 9 6 C8.62875 5.525625 8.2575 5.05125 7.875 4.5625 C5.37353038 2.47794198 3.18406582 2.35378509 0 2 C0 1.34 0 0.68 0 0 Z " fill="#9D83A7" transform="translate(339,178)"/>
<path d="M0 0 C-0.39803561 2.88575819 -0.79009069 3.82189513 -3.0625 5.75 C-3.701875 6.1625 -4.34125 6.575 -5 7 C-5.66 6.67 -6.32 6.34 -7 6 C-7 5.34 -7 4.68 -7 4 C-2.52941176 0 -2.52941176 0 0 0 Z " fill="#9775A5" transform="translate(336,159)"/>
<path d="M0 0 C0.33 0.66 0.66 1.32 1 2 C0.67 2.99 0.34 3.98 0 5 C0.66 5.33 1.32 5.66 2 6 C1.01 6.99 0.02 7.98 -1 9 C-1.99 8.34 -2.98 7.68 -4 7 C-2.79618552 4.50638429 -1.54571278 2.31856917 0 0 Z " fill="#A88AB2" transform="translate(171,148)"/>
<path d="M0 0 C0.33 0 0.66 0 1 0 C1.08159574 4.16138263 0.98248524 7.9472484 0 12 C-2 10 -2 10 -2.25 6.5625 C-2 3 -2 3 0 0 Z " fill="#6B547B" transform="translate(372,355)"/>
<path d="M0 0 C0 1.32 0 2.64 0 4 C-1.98 4.33 -3.96 4.66 -6 5 C-5.625 3.0625 -5.625 3.0625 -5 1 C-3 0 -3 0 0 0 Z " fill="#775B84" transform="translate(254,226)"/>
<path d="M0 0 C2.97 0.495 2.97 0.495 6 1 C4.35 2.65 2.7 4.3 1 6 C0 5 0 5 -0.0625 2.4375 C-0.041875 1.633125 -0.02125 0.82875 0 0 Z " fill="#9177A2" transform="translate(307,187)"/>
<path d="M0 0 C0.66 1.32 1.32 2.64 2 4 C0.35 5.32 -1.3 6.64 -3 8 C-3.33 6.68 -3.66 5.36 -4 4 C-3.34 4 -2.68 4 -2 4 C-2 3.34 -2 2.68 -2 2 C-1.34 2 -0.68 2 0 2 C0 1.34 0 0.68 0 0 Z " fill="#9A7FA6" transform="translate(291,179)"/>
<path d="M0 0 C1.32 0.33 2.64 0.66 4 1 C4.33 2.32 4.66 3.64 5 5 C4.34 5 3.68 5 3 5 C3 4.34 3 3.68 3 3 C1.02 3.33 -0.96 3.66 -3 4 C-2.01 2.68 -1.02 1.36 0 0 Z " fill="#A589B2" transform="translate(299,171)"/>
<path d="M0 0 C3.26954202 0.56371414 4.82575883 1.49962266 7 4 C6.67 4.66 6.34 5.32 6 6 C5.01 5.34 4.02 4.68 3 4 C0.84725052 4.30840599 0.84725052 4.30840599 -1 5 C-0.67 3.35 -0.34 1.7 0 0 Z " fill="#775B84" transform="translate(235,234)"/>
<path d="M0 0 C0 3.39593478 -0.52165948 4.06619881 -2.5 6.6875 C-2.9640625 7.31011719 -3.428125 7.93273437 -3.90625 8.57421875 C-4.2671875 9.04472656 -4.628125 9.51523438 -5 10 C-5.99 9.67 -6.98 9.34 -8 9 C-5.36 6.03 -2.72 3.06 0 0 Z " fill="#9F8DAB" transform="translate(271,201)"/>
<path d="M0 0 C0.33 0.66 0.66 1.32 1 2 C0.34 2 -0.32 2 -1 2 C-1.226875 2.639375 -1.45375 3.27875 -1.6875 3.9375 C-3 6 -3 6 -5.625 6.75 C-6.800625 6.87375 -6.800625 6.87375 -8 7 C-7.67 6.34 -7.34 5.68 -7 5 C-6.34 5 -5.68 5 -5 5 C-5 4.34 -5 3.68 -5 3 C-2.5 1.375 -2.5 1.375 0 0 Z " fill="#AD92B8" transform="translate(191,131)"/>
<path d="M0 0 C5.94 1.485 5.94 1.485 12 3 C12 3.33 12 3.66 12 4 C10.741875 4.020625 9.48375 4.04125 8.1875 4.0625 C7.47980469 4.07410156 6.77210938 4.08570313 6.04296875 4.09765625 C4 4 4 4 1 3 C0.67 2.01 0.34 1.02 0 0 Z " fill="#917F9A" transform="translate(216,306)"/>
<path d="M0 0 C0.33 0 0.66 0 1 0 C1.66 3.3 2.32 6.6 3 10 C1.35 8.68 -0.3 7.36 -2 6 C-1.33333333 4 -0.66666667 2 0 0 Z " fill="#786084" transform="translate(230,254)"/>
<path d="M0 0 C0.66 0.33 1.32 0.66 2 1 C2 1.99 2 2.98 2 4 C2.66 4.33 3.32 4.66 4 5 C3.67 6.32 3.34 7.64 3 9 C0.9375 6.75 0.9375 6.75 -1 4 C-0.75 1.6875 -0.75 1.6875 0 0 Z " fill="#896E92" transform="translate(222,248)"/>
<path d="M0 0 C0.99 0.33 1.98 0.66 3 1 C2.34 2.98 1.68 4.96 1 7 C0.34 6.67 -0.32 6.34 -1 6 C-0.67 4.02 -0.34 2.04 0 0 Z " fill="#51395B" transform="translate(290,376)"/>
<path d="M0 0 C4.67692308 1.47692308 4.67692308 1.47692308 6.3125 4.125 C6.539375 4.74375 6.76625 5.3625 7 6 C3.62496331 4.8141763 1.35277269 3.72426311 -1 1 C-0.67 0.67 -0.34 0.34 0 0 Z " fill="#7C6486" transform="translate(193,307)"/>
<path d="M0 0 C1.32 0.99 2.64 1.98 4 3 C2.68 4.32 1.36 5.64 0 7 C-0.66 5.68 -1.32 4.36 -2 3 C-1.34 2.01 -0.68 1.02 0 0 Z " fill="#806D8E" transform="translate(330,282)"/>
<path d="M0 0 C0.6875 1.8125 0.6875 1.8125 1 4 C-0.4375 5.75 -0.4375 5.75 -2 7 C-2.99 6.67 -3.98 6.34 -5 6 C-3.35 4.02 -1.7 2.04 0 0 Z " fill="#937E9D" transform="translate(248,228)"/>
<path d="M0 0 C0.99 0.33 1.98 0.66 3 1 C1.02 3.97 1.02 3.97 -1 7 C-1.66 5.68 -2.32 4.36 -3 3 C-2.01 2.01 -1.02 1.02 0 0 Z " fill="#A084AE" transform="translate(327,167)"/>
<path d="M0 0 C2.875 -0.1875 2.875 -0.1875 6 0 C6.66 0.99 7.32 1.98 8 3 C5.36 3 2.72 3 0 3 C0 2.01 0 1.02 0 0 Z " fill="#4F3758" transform="translate(411,368)"/>
<path d="M0 0 C0.66 1.32 1.32 2.64 2 4 C0.02 4.99 0.02 4.99 -2 6 C-2.33 4.35 -2.66 2.7 -3 1 C-2.01 0.67 -1.02 0.34 0 0 Z " fill="#705B7B" transform="translate(220,360)"/>
<path d="M0 0 C0.93065133 2.60582371 1.14917407 3.64198224 0.0625 6.25 C-0.4634375 7.11625 -0.4634375 7.11625 -1 8 C-1.66 8 -2.32 8 -3 8 C-3 6.68 -3 5.36 -3 4 C-2.34 4 -1.68 4 -1 4 C-0.67 2.68 -0.34 1.36 0 0 Z " fill="#675075" transform="translate(141,358)"/>
<path d="M0 0 C1.485 0.99 1.485 0.99 3 2 C2.67 3.98 2.34 5.96 2 8 C1.34 8 0.68 8 0 8 C0 5.36 0 2.72 0 0 Z " fill="#897090" transform="translate(168,265)"/>
<path d="M0 0 C0.33 0 0.66 0 1 0 C1 1.65 1 3.3 1 5 C-0.65 5.33 -2.3 5.66 -4 6 C-3.67 4.35 -3.34 2.7 -3 1 C-2.01 1.33 -1.02 1.66 0 2 C0 1.34 0 0.68 0 0 Z " fill="#765986" transform="translate(206,225)"/>
<path d="M0 0 C-0.33 1.98 -0.66 3.96 -1 6 C-2.32 5.67 -3.64 5.34 -5 5 C-4.625 3.0625 -4.625 3.0625 -4 1 C-2 0 -2 0 0 0 Z " fill="#946FA2" transform="translate(176,147)"/>
<path d="M0 0 C0.33 0 0.66 0 1 0 C1.25 6.625 1.25 6.625 -1 10 C-1.9765625 3.9453125 -1.9765625 3.9453125 -2 2 C-1.34 1.34 -0.68 0.68 0 0 Z " fill="#4F375C" transform="translate(372,368)"/>
<path d="M0 0 C1.88391785 3.26545761 2.49287967 6.28111761 3 10 C2.34 10 1.68 10 1 10 C-0.60725635 6.78548731 -0.05748185 3.56387464 0 0 Z " fill="#A288AA" transform="translate(160,241)"/>
<path d="M0 0 C1.9375 0.25 1.9375 0.25 4 1 C4.66 1.99 5.32 2.98 6 4 C3.625 4.1875 3.625 4.1875 1 4 C0.34 3.01 -0.32 2.02 -1 1 C-0.67 0.67 -0.34 0.34 0 0 Z " fill="#9782A1" transform="translate(229,228)"/>
<path d="M0 0 C1.5625 1.625 1.5625 1.625 3 4 C2.6875 7.25 2.6875 7.25 2 10 C-0.09350689 6.5980513 -0.17942163 3.94727588 0 0 Z " fill="#9E87A8" transform="translate(338,190)"/>
<path d="M0 0 C0.86625 0.556875 0.86625 0.556875 1.75 1.125 C0.76 2.61 0.76 2.61 -0.25 4.125 C-2.23 3.135 -4.21 2.145 -6.25 1.125 C-2.80384615 -1.09038462 -2.80384615 -1.09038462 0 0 Z " fill="#9878A6" transform="translate(308.25,131.875)"/>
<path d="M0 0 C2 1 2 1 2 1 Z M-2 1 C-1.34 1.33 -0.68 1.66 0 2 C-1.32 3.32 -2.64 4.64 -4 6 C-4.99 5.67 -5.98 5.34 -7 5 C-7 4.34 -7 3.68 -7 3 C-4.625 1.9375 -4.625 1.9375 -2 1 Z " fill="#A078B1" transform="translate(359,126)"/>
<path d="M0 0 C0 0.66 0 1.32 0 2 C-0.66 2 -1.32 2 -2 2 C-2 2.66 -2 3.32 -2 4 C-2.99 4.33 -3.98 4.66 -5 5 C-5.33 3.68 -5.66 2.36 -6 1 C-4 0 -4 0 0 0 Z " fill="#BCA6C1" transform="translate(383,113)"/>
</svg>
